<?xml version="1.0" encoding="UTF-8"?>
<!-- Generated by Pixelmator Pro 3.4.1 -->
<svg width="1024" height="1024" viewBox="0 0 1024 1024" xmlns="http://www.w3.org/2000/svg">
    <path id="Ellipse" fill="#000000" stroke="#000000" stroke-width="3" d="M 512 885 C 306.550293 885 140 718.22583 140 512.5 C 140 306.774109 306.550293 140 512 140 C 717.449768 140 884 306.774109 884 512.5 C 884 718.22583 717.449768 885 512 885 Z M 491.179688 774.75 L 491.179688 584.09375 C 497.911713 580.434937 504.237976 575.758118 509.931641 570.064453 C 541.793213 538.203003 541.793213 486.546997 509.931641 454.685547 C 504.237976 448.991882 497.911713 444.315063 491.179688 440.65625 L 491.179688 250 C 439.608459 250 395.602142 320.510193 378.394531 419.662109 L 318.734375 419.662109 L 318.734375 605.087891 L 378.394531 605.087891 C 395.602142 704.239868 439.608459 774.75 491.179688 774.75 Z M 647.539063 774.75 C 678.939636 774.75 704.394531 657.280396 704.394531 512.375 C 704.394531 367.469604 678.939636 250 647.539063 250 L 647.539063 279.556641 C 665.731995 323.313721 678.152344 411.149963 678.152344 512.375 C 678.152344 613.600098 665.731995 701.436279 647.539063 745.193359 L 647.539063 774.75 Z M 590.683594 705.216797 C 622.084045 705.216797 647.539063 618.87793 647.539063 512.375 C 647.539063 405.87207 622.084045 319.533203 590.683594 319.533203 L 590.683594 341.257813 C 608.876526 373.418518 621.296875 437.976379 621.296875 512.375 C 621.296875 586.773621 608.876526 651.331543 590.683594 683.492188 L 590.683594 705.216797 Z M 533.826172 636.146484 C 565.226685 636.146484 590.683594 580.731445 590.683594 512.375 C 590.683594 444.018494 565.226685 388.603516 533.826172 388.603516 L 533.826172 402.546875 C 552.019104 423.188538 564.441406 464.623962 564.441406 512.375 C 564.441406 560.126038 552.019104 601.561401 533.826172 622.203125 L 533.826172 636.146484 Z"/>
</svg>
