# Blender 3.6.9
# www.blender.org
mtllib frigo-porte.mtl.mtl
o Object.2
v 56.682762 -103.193466 1.503405
v -0.317240 -103.193466 1.503405
v 56.682762 -103.193466 -1.996595
v -0.317240 -103.193466 -1.996595
v 56.682762 -1.193470 -1.996603
v 56.682762 -1.193470 1.503397
v -0.317240 -1.193470 1.503397
v -0.317240 -1.193470 -1.996603
v 56.682762 -0.782402 1.465067
v -0.317240 -0.782402 1.465067
v 56.682762 2.417599 1.465067
v -0.317240 2.417599 1.465067
v 52.067245 -0.782402 -3.393369
v -0.317240 -0.782402 -3.393365
v 56.682762 -0.782402 -3.393369
v 56.682762 2.158481 -3.393369
v 56.682762 2.417598 -3.393369
v 4.298271 2.417598 -3.393366
v -0.317240 2.417598 -3.393366
v -0.317240 -0.523285 -3.393365
vn -0.0000 -0.0000 1.0000
vn -1.0000 -0.0000 -0.0000
vn -0.0000 -0.0000 -1.0000
vn -0.0000 -1.0000 -0.0000
vn 1.0000 -0.0000 -0.0000
vn -0.0000 1.0000 -0.0000
s 0
usemtl Cube_1_1_0
f 2//1 1//1 7//1
f 7//2 8//2 2//2
f 8//2 4//2 2//2
f 4//3 8//3 3//3
f 4//4 3//4 1//4
f 1//5 3//5 6//5
f 3//5 5//5 6//5
f 7//6 6//6 5//6
f 8//3 5//3 3//3
f 8//6 7//6 5//6
f 1//1 6//1 7//1
f 2//4 4//4 1//4
f 10//1 9//1 12//1
f 20//2 10//2 12//2
f 20//2 12//2 19//2
f 19//2 14//2 20//2
f 14//3 19//3 18//3
f 14//3 18//3 13//3
f 13//4 10//4 14//4
f 13//3 18//3 17//3
f 16//3 13//3 17//3
f 16//5 17//5 11//5
f 16//5 11//5 9//5
f 16//5 9//5 15//5
f 13//4 15//4 9//4
f 13//3 16//3 15//3
f 18//6 11//6 17//6
f 18//6 12//6 11//6
f 18//6 19//6 12//6
f 20//2 14//2 10//2
f 9//1 11//1 12//1
f 13//4 9//4 10//4
