{"asset":{"generator":"3D Builder","version":"2.0"},"scene":0,"scenes":[{"nodes":[0]}],"nodes":[{"mesh":0,"matrix":[0.99999994039535522,0,0,0,0,-1.1920928244535389E-7,-0.99999982118606567,0,0,0.5888325572013855,-7.0194317913774285E-8,0,0,0,0,1]}],"meshes":[{"primitives":[{"attributes":{"POSITION":0,"COLOR_0":1},"mode":4,"indices":2}]}],"accessors":[{"bufferView":0,"byteOffset":0,"count":182,"componentType":5126,"type":"VEC3","min":[-0.0040000001899898052,-0.0040000006556510925,0],"max":[0.0040000001899898052,0.0040000001899898052,0.046000003814697266]},{"bufferView":1,"byteOffset":0,"count":182,"componentType":5121,"type":"VEC4","normalized":true},{"bufferView":2,"byteOffset":0,"count":1248,"componentType":5125,"type":"SCALAR"}],"bufferViews":[{"buffer":0,"byteOffset":0,"byteLength":2184,"byteStride":12,"target":34962},{"buffer":0,"byteOffset":2184,"byteLength":728,"byteStride":4,"target":34962},{"buffer":0,"byteOffset":2912,"byteLength":4992,"target":34963}],"buffers":[{"byteLength":7904,"uri":"COLONNE.bin"}]}