{"asset":{"generator":"3D Builder","version":"2.0"},"scene":0,"scenes":[{"nodes":[0]}],"nodes":[{"mesh":0,"matrix":[0.039370074868202209,0,0,0,0,0.039370063692331314,4.6932779440567174E-8,0,0,-2.8772024762702131E-8,0.039370059967041016,0,0.0009553824202157557,6.6393930353569885E-8,0.0013277197722345591,1]}],"meshes":[{"primitives":[{"attributes":{"POSITION":0},"mode":4,"indices":1,"material":0}]}],"materials":[{"name":"Default","pbrMetallicRoughness":{"baseColorFactor":[0.50288659334182739,0.50288659334182739,0.50288659334182739,1],"metallicFactor":0,"roughnessFactor":1},"alphaMode":"OPAQUE"}],"accessors":[{"bufferView":0,"byteOffset":0,"count":134,"componentType":5126,"type":"VEC3","min":[-0.40526670217514038,-1.4477999457085389E-6,-0.3435789942741394],"max":[0.35673332214355469,2.3494477272033691,0.27613019943237305]},{"bufferView":1,"byteOffset":0,"count":792,"componentType":5125,"type":"SCALAR"}],"bufferViews":[{"buffer":0,"byteOffset":0,"byteLength":1608,"byteStride":12,"target":34962},{"buffer":0,"byteOffset":1608,"byteLength":3168,"target":34963}],"buffers":[{"byteLength":4776,"uri":"column.bin"}]}