{"asset":{"generator":"3D Builder","version":"2.0"},"scene":0,"scenes":[{"nodes":[0]}],"nodes":[{"mesh":0,"matrix":[0.99999994039535522,0,0,0,0,-1.1920928244535389E-7,-0.99999982118606567,0,0,0.99999982118606567,-1.1920928244535389E-7,0,0,0.013526731170713902,-1.6125122348498167E-9,1]}],"meshes":[{"primitives":[{"attributes":{"POSITION":0,"TEXCOORD_0":1},"mode":4,"indices":2,"material":0}]}],"materials":[{"pbrMetallicRoughness":{"baseColorFactor":[1,1,1,1],"metallicFactor":0,"roughnessFactor":1,"baseColorTexture":{"index":0,"texCoord":0}},"alphaMode":"OPAQUE"}],"textures":[{"source":0,"sampler":0}],"images":[{"uri":"stone.png"}],"samplers":[{"magFilter":9729,"wrapS":10497,"wrapT":10497}],"accessors":[{"bufferView":0,"byteOffset":0,"count":435,"componentType":5126,"type":"VEC3","min":[-0.015955384820699692,-5.7000004716201147E-8,-0.013526733964681625],"max":[0.014044617302715778,0.092499956488609314,0.01087329164147377]},{"bufferView":1,"byteOffset":0,"count":435,"componentType":5126,"type":"VEC2"},{"bufferView":2,"byteOffset":0,"count":690,"componentType":5125,"type":"SCALAR"}],"bufferViews":[{"buffer":0,"byteOffset":0,"byteLength":5220,"byteStride":12,"target":34962},{"buffer":0,"byteOffset":5220,"byteLength":3480,"byteStride":8,"target":34962},{"buffer":0,"byteOffset":8700,"byteLength":2760,"target":34963}],"buffers":[{"byteLength":11460,"uri":"column_balustrade.bin"}]}