{"asset":{"generator":"3D Builder","version":"2.0"},"scene":0,"scenes":[{"nodes":[0]}],"nodes":[{"mesh":0,"matrix":[1,0,0,0,0,-1.1920928955078125E-7,-0.99999988079071045,0,0,0.99999988079071045,-1.1920928955078125E-7,0,0,0,0,1]}],"meshes":[{"primitives":[{"attributes":{"POSITION":0},"mode":4,"indices":1,"material":0}]}],"materials":[{"name":"Default","pbrMetallicRoughness":{"baseColorFactor":[0.50288659334182739,0.50288659334182739,0.50288659334182739,1],"metallicFactor":0,"roughnessFactor":1},"alphaMode":"OPAQUE"}],"accessors":[{"bufferView":0,"byteOffset":0,"count":94,"componentType":5126,"type":"VEC3","min":[-0.014999998733401299,-0.012199005112051964,-5.0938068867079078E-12],"max":[0.014969349838793278,0.012183464132249355,0.0924609825015068]},{"bufferView":1,"byteOffset":0,"count":552,"componentType":5125,"type":"SCALAR"}],"bufferViews":[{"buffer":0,"byteOffset":0,"byteLength":1128,"byteStride":12,"target":34962},{"buffer":0,"byteOffset":1128,"byteLength":2208,"target":34963}],"buffers":[{"byteLength":3336,"uri":"column2.bin"}]}