{"asset":{"generator":"3D Builder","version":"2.0"},"scene":0,"scenes":[{"nodes":[0,1]}],"nodes":[{"mesh":0,"matrix":[0.54821860790252686,0,0,0,0,-6.5352750766578538E-8,-0.54821854829788208,0,0,0.54821854829788208,-6.5352750766578538E-8,0,-0.012284540571272373,0.0043615591712296009,0.01106717623770237,1]},{"mesh":1,"matrix":[1,0,0,0,0,-1.1920928955078125E-7,-0.99999988079071045,0,0,0.99999988079071045,-1.1920928955078125E-7,0,-0.00010819802992045879,-0.021082192659378052,-6.4772175392135978E-5,1]}],"meshes":[{"primitives":[{"attributes":{"POSITION":0,"COLOR_0":1},"mode":4,"indices":2}]},{"primitives":[{"attributes":{"POSITION":3,"COLOR_0":4},"mode":4,"indices":5}]}],"accessors":[{"bufferView":0,"byteOffset":0,"count":110,"componentType":5126,"type":"VEC3","min":[0.00055635703029111028,0.00031395303085446358,-0.00969966035336256],"max":[0.039845004677772522,0.0400611013174057,0.029952101409435272]},{"bufferView":1,"byteOffset":0,"count":110,"componentType":5121,"type":"VEC4","normalized":true},{"bufferView":2,"byteOffset":0,"count":648,"componentType":5125,"type":"SCALAR"},{"bufferView":3,"byteOffset":0,"count":110,"componentType":5126,"type":"VEC3","min":[-0.019534843042492867,-0.019938347861170769,0.00030033974326215684],"max":[0.019751239567995071,0.019808799028396606,0.039952095597982407]},{"bufferView":4,"byteOffset":0,"count":110,"componentType":5121,"type":"VEC4","normalized":true},{"bufferView":5,"byteOffset":0,"count":648,"componentType":5125,"type":"SCALAR"}],"bufferViews":[{"buffer":0,"byteOffset":0,"byteLength":1320,"byteStride":12,"target":34962},{"buffer":0,"byteOffset":1320,"byteLength":440,"byteStride":4,"target":34962},{"buffer":0,"byteOffset":1760,"byteLength":2592,"target":34963},{"buffer":0,"byteOffset":4352,"byteLength":1320,"byteStride":12,"target":34962},{"buffer":0,"byteOffset":5672,"byteLength":440,"byteStride":4,"target":34962},{"buffer":0,"byteOffset":6112,"byteLength":2592,"target":34963}],"buffers":[{"byteLength":8704,"uri":"Eye.bin"}]}