{"asset":{"generator":"3D Builder","version":"2.0"},"scene":0,"scenes":[{"nodes":[0]}],"nodes":[{"children":[1,2,3,4,5,6,7]},{"mesh":0,"matrix":[0.99999994039535522,0,0,0,0,-1.1920928244535389E-7,-0.99999982118606567,0,0,0.99999982118606567,-1.1920928244535389E-7,0,0,0.090322405099868774,-1.0767270630651637E-8,1]},{"mesh":1,"matrix":[0.99999994039535522,0,0,0,0,-1.1920928244535389E-7,-0.99999982118606567,0,0,0.99999982118606567,-1.1920928244535389E-7,0,0,0.090322405099868774,-1.0767270630651637E-8,1]},{"mesh":2,"matrix":[0.99999994039535522,0,0,0,0,-1.1920928244535389E-7,-0.99999982118606567,0,0,0.99999982118606567,-1.1920928244535389E-7,0,0,0.090322405099868774,-1.0767270630651637E-8,1]},{"mesh":3,"matrix":[0.99999994039535522,0,0,0,0,-1.1920928244535389E-7,-0.99999982118606567,0,0,0.99999982118606567,-1.1920928244535389E-7,0,0,0.090322405099868774,-1.0767270630651637E-8,1]},{"mesh":4,"matrix":[0.99999994039535522,0,0,0,0,-1.1920928244535389E-7,-0.99999982118606567,0,0,0.99999982118606567,-1.1920928244535389E-7,0,0,0.090322405099868774,-1.0767270630651637E-8,1]},{"mesh":5,"matrix":[0.99999994039535522,0,0,0,0,-1.1920928244535389E-7,-0.99999982118606567,0,0,0.99999982118606567,-1.1920928244535389E-7,0,0,0.090322405099868774,-1.0767270630651637E-8,1]},{"mesh":6,"matrix":[0.99999994039535522,0,0,0,0,-1.1920928244535389E-7,-0.99999982118606567,0,0,0.99999982118606567,-1.1920928244535389E-7,0,0,0.090322405099868774,-1.0767270630651637E-8,1]}],"meshes":[{"primitives":[{"attributes":{"POSITION":0,"COLOR_0":1},"mode":4,"indices":2}]},{"primitives":[{"attributes":{"POSITION":3},"mode":4,"indices":4}]},{"primitives":[{"attributes":{"POSITION":5,"COLOR_0":6},"mode":4,"indices":7}]},{"primitives":[{"attributes":{"POSITION":8,"COLOR_0":9},"mode":4,"indices":10}]},{"primitives":[{"attributes":{"POSITION":11,"COLOR_0":12},"mode":4,"indices":13}]},{"primitives":[{"attributes":{"POSITION":14,"COLOR_0":15},"mode":4,"indices":16}]},{"primitives":[{"attributes":{"POSITION":17,"COLOR_0":18},"mode":4,"indices":19}]}],"accessors":[{"bufferView":0,"byteOffset":0,"count":1199,"componentType":5126,"type":"VEC3","min":[-0.04589800164103508,-0.0018034020904451609,0.014985993504524231],"max":[0.038430005311965942,0.0540258027613163,0.090322405099868774]},{"bufferView":1,"byteOffset":0,"count":1199,"componentType":5121,"type":"VEC4","normalized":true},{"bufferView":2,"byteOffset":0,"count":4086,"componentType":5125,"type":"SCALAR"},{"bufferView":3,"byteOffset":0,"count":12,"componentType":5126,"type":"VEC3","min":[0.038430005311965942,0.01176020223647356,0.039928790181875229],"max":[0.047675605863332748,0.046355001628398895,0.0699516162276268]},{"bufferView":4,"byteOffset":0,"count":60,"componentType":5125,"type":"SCALAR"},{"bufferView":5,"byteOffset":0,"count":2037,"componentType":5126,"type":"VEC3","min":[-0.036754004657268524,0.0040385983884334564,-0.0803656131029129],"max":[0.060223203152418137,0.0540258027613163,0.0049783941358327866]},{"bufferView":6,"byteOffset":0,"count":2037,"componentType":5121,"type":"VEC4","normalized":true},{"bufferView":7,"byteOffset":0,"count":9288,"componentType":5125,"type":"SCALAR"},{"bufferView":8,"byteOffset":0,"count":30,"componentType":5126,"type":"VEC3","min":[-0.0090679973363876343,0.01917700283229351,0.0049783941358327866],"max":[0.010794805362820625,0.03903980553150177,0.014985993504524231]},{"bufferView":9,"byteOffset":0,"count":30,"componentType":5121,"type":"VEC4","normalized":true},{"bufferView":10,"byteOffset":0,"count":168,"componentType":5125,"type":"SCALAR"},{"bufferView":11,"byteOffset":0,"count":252,"componentType":5126,"type":"VEC3","min":[0.043967206031084061,0.0090170009061694145,-0.090322412550449371],"max":[0.051434807479381561,0.049047399312257767,-0.063804812729358673]},{"bufferView":12,"byteOffset":0,"count":252,"componentType":5121,"type":"VEC4","normalized":true},{"bufferView":13,"byteOffset":0,"count":1170,"componentType":5125,"type":"SCALAR"},{"bufferView":14,"byteOffset":0,"count":2919,"componentType":5126,"type":"VEC3","min":[-0.060223601758480072,-0.052857406437397,-0.021183609962463379],"max":[-0.035229999572038651,0.03903980553150177,0.01889759860932827]},{"bufferView":15,"byteOffset":0,"count":2919,"componentType":5121,"type":"VEC4","normalized":true},{"bufferView":16,"byteOffset":0,"count":13806,"componentType":5125,"type":"SCALAR"},{"bufferView":17,"byteOffset":0,"count":65,"componentType":5126,"type":"VEC3","min":[-0.051486000418663025,-0.0540258064866066,-0.020472405478358269],"max":[-0.044018402695655823,-0.052197005599737167,-0.015494011342525482]},{"bufferView":18,"byteOffset":0,"count":65,"componentType":5121,"type":"VEC4","normalized":true},{"bufferView":19,"byteOffset":0,"count":228,"componentType":5125,"type":"SCALAR"}],"bufferViews":[{"buffer":0,"byteOffset":0,"byteLength":14388,"byteStride":12,"target":34962},{"buffer":0,"byteOffset":14388,"byteLength":4796,"byteStride":4,"target":34962},{"buffer":0,"byteOffset":19184,"byteLength":16344,"target":34963},{"buffer":0,"byteOffset":35528,"byteLength":144,"byteStride":12,"target":34962},{"buffer":0,"byteOffset":35672,"byteLength":240,"target":34963},{"buffer":0,"byteOffset":35912,"byteLength":24444,"byteStride":12,"target":34962},{"buffer":0,"byteOffset":60356,"byteLength":8148,"byteStride":4,"target":34962},{"buffer":0,"byteOffset":68504,"byteLength":37152,"target":34963},{"buffer":0,"byteOffset":105656,"byteLength":360,"byteStride":12,"target":34962},{"buffer":0,"byteOffset":106016,"byteLength":120,"byteStride":4,"target":34962},{"buffer":0,"byteOffset":106136,"byteLength":672,"target":34963},{"buffer":0,"byteOffset":106808,"byteLength":3024,"byteStride":12,"target":34962},{"buffer":0,"byteOffset":109832,"byteLength":1008,"byteStride":4,"target":34962},{"buffer":0,"byteOffset":110840,"byteLength":4680,"target":34963},{"buffer":0,"byteOffset":115520,"byteLength":35028,"byteStride":12,"target":34962},{"buffer":0,"byteOffset":150548,"byteLength":11676,"byteStride":4,"target":34962},{"buffer":0,"byteOffset":162224,"byteLength":55224,"target":34963},{"buffer":0,"byteOffset":217448,"byteLength":780,"byteStride":12,"target":34962},{"buffer":0,"byteOffset":218228,"byteLength":260,"byteStride":4,"target":34962},{"buffer":0,"byteOffset":218488,"byteLength":912,"target":34963}],"buffers":[{"byteLength":219400,"uri":"BODY.bin"}]}