{"asset":{"generator":"3D Builder","version":"2.0"},"scene":0,"scenes":[{"nodes":[0]}],"nodes":[{"mesh":0,"matrix":[1,0,0,0,0,-1.1920928955078125E-7,-0.99999988079071045,0,0,0.99999988079071045,-1.1920928955078125E-7,0,0.014137042686343193,-0.02670387364923954,0.029120231047272682,1]}],"meshes":[{"primitives":[{"attributes":{"POSITION":0,"TEXCOORD_0":6},"mode":4,"indices":12,"material":0},{"attributes":{"POSITION":1,"COLOR_0":11},"mode":4,"indices":13},{"attributes":{"POSITION":2,"TEXCOORD_0":7},"mode":4,"indices":14,"material":0},{"attributes":{"POSITION":3,"TEXCOORD_0":8},"mode":4,"indices":15,"material":0},{"attributes":{"POSITION":4,"TEXCOORD_0":9},"mode":4,"indices":16,"material":0},{"attributes":{"POSITION":5,"TEXCOORD_0":10},"mode":4,"indices":17,"material":0}]}],"materials":[{"pbrMetallicRoughness":{"baseColorFactor":[1,1,1,1],"metallicFactor":0,"roughnessFactor":1,"baseColorTexture":{"index":0,"texCoord":0}},"alphaMode":"OPAQUE"}],"textures":[{"source":0,"sampler":0}],"images":[{"uri":"TextureFeu.png"}],"samplers":[{"magFilter":9729,"wrapS":10497,"wrapT":10497}],"accessors":[{"bufferView":0,"byteOffset":0,"count":371,"componentType":5126,"type":"VEC3","min":[-0.015485852025449276,0.03012966550886631,0.00175590964499861],"max":[-0.00264357659034431,0.041275352239608765,0.034497357904911041]},{"bufferView":0,"byteOffset":4452,"count":250,"componentType":5126,"type":"VEC3","min":[-0.024092365056276321,0.019080061465501785,0.033347807824611664],"max":[-0.0042887674644589424,0.038990471512079239,0.053407762199640274]},{"bufferView":0,"byteOffset":7452,"count":561,"componentType":5126,"type":"VEC3","min":[-0.013902164064347744,0.018738251179456711,0.0018372269114479423],"max":[-0.0033060647547245026,0.030587518587708473,0.03430914506316185]},{"bufferView":0,"byteOffset":14184,"count":455,"componentType":5126,"type":"VEC3","min":[-0.025630509480834007,0.028223469853401184,0.0026703879702836275],"max":[-0.014357704669237137,0.040678158402442932,0.035313211381435394]},{"bufferView":0,"byteOffset":19644,"count":1070,"componentType":5126,"type":"VEC3","min":[-0.023707829415798187,0.020895924419164658,0],"max":[-0.0087538557127118111,0.0375996008515358,0.033347807824611664]},{"bufferView":0,"byteOffset":32484,"count":1892,"componentType":5126,"type":"VEC3","min":[-0.025630509480834007,0.016965113580226898,0.0064943837933242321],"max":[-0.013624443672597408,0.028116652742028236,0.034992765635252]},{"bufferView":1,"byteOffset":0,"count":371,"componentType":5126,"type":"VEC2"},{"bufferView":1,"byteOffset":2968,"count":561,"componentType":5126,"type":"VEC2"},{"bufferView":1,"byteOffset":7456,"count":455,"componentType":5126,"type":"VEC2"},{"bufferView":1,"byteOffset":11096,"count":1070,"componentType":5126,"type":"VEC2"},{"bufferView":1,"byteOffset":19656,"count":1892,"componentType":5126,"type":"VEC2"},{"bufferView":2,"byteOffset":0,"count":250,"componentType":5121,"type":"VEC4","normalized":true},{"bufferView":3,"byteOffset":0,"count":1389,"componentType":5125,"type":"SCALAR"},{"bufferView":3,"byteOffset":5556,"count":957,"componentType":5125,"type":"SCALAR"},{"bufferView":3,"byteOffset":9384,"count":1245,"componentType":5125,"type":"SCALAR"},{"bufferView":3,"byteOffset":14364,"count":1164,"componentType":5125,"type":"SCALAR"},{"bufferView":3,"byteOffset":19020,"count":2442,"componentType":5125,"type":"SCALAR"},{"bufferView":3,"byteOffset":28788,"count":4149,"componentType":5125,"type":"SCALAR"}],"bufferViews":[{"buffer":0,"byteOffset":0,"byteLength":55188,"byteStride":12,"target":34962},{"buffer":0,"byteOffset":55188,"byteLength":34792,"byteStride":8,"target":34962},{"buffer":0,"byteOffset":89980,"byteLength":1000,"byteStride":4,"target":34962},{"buffer":0,"byteOffset":90980,"byteLength":45384,"target":34963}],"buffers":[{"byteLength":136364,"uri":"Technobot_avecflame(1).bin"}]}