{"asset":{"generator":"3D Builder","version":"2.0"},"scene":0,"scenes":[{"nodes":[0]}],"nodes":[{"mesh":0,"matrix":[1,0,0,0,0,-1.1920928955078125E-7,-0.99999988079071045,0,0,0.99999988079071045,-1.1920928955078125E-7,0,0.014137042686343193,-0.02670387364923954,0.029120231047272682,1]}],"meshes":[{"primitives":[{"attributes":{"POSITION":0,"COLOR_0":11},"mode":4,"indices":12},{"attributes":{"POSITION":1,"TEXCOORD_0":6},"mode":4,"indices":13,"material":0},{"attributes":{"POSITION":2,"TEXCOORD_0":7},"mode":4,"indices":14,"material":0},{"attributes":{"POSITION":3,"TEXCOORD_0":8},"mode":4,"indices":15,"material":0},{"attributes":{"POSITION":4,"TEXCOORD_0":9},"mode":4,"indices":16,"material":0},{"attributes":{"POSITION":5,"TEXCOORD_0":10},"mode":4,"indices":17,"material":0}]}],"materials":[{"pbrMetallicRoughness":{"baseColorFactor":[1,1,1,1],"metallicFactor":0,"roughnessFactor":1,"baseColorTexture":{"index":0,"texCoord":0}},"alphaMode":"OPAQUE"}],"textures":[{"source":0,"sampler":0}],"images":[{"uri":"TextureFeu.png"}],"samplers":[{"magFilter":9729,"wrapS":10497,"wrapT":10497}],"accessors":[{"bufferView":0,"byteOffset":0,"count":207,"componentType":5126,"type":"VEC3","min":[-0.024068674072623253,0.019133651629090309,0.033407744020223618],"max":[-0.0042054723016917706,0.03899681568145752,0.053407762199640274]},{"bufferView":0,"byteOffset":2484,"count":590,"componentType":5126,"type":"VEC3","min":[-0.023701947182416916,0.020911134779453278,0],"max":[-0.00874833669513464,0.03758896142244339,0.033407744020223618]},{"bufferView":0,"byteOffset":9564,"count":373,"componentType":5126,"type":"VEC3","min":[-0.013868545182049274,0.018743505701422691,0.0019019793253391981],"max":[-0.0032933067996054888,0.03059498593211174,0.034313049167394638]},{"bufferView":0,"byteOffset":14040,"count":386,"componentType":5126,"type":"VEC3","min":[-0.015485852025449276,0.03014792874455452,0.00175590964499861],"max":[-0.0026435763575136662,0.041275352239608765,0.034497354179620743]},{"bufferView":0,"byteOffset":18672,"count":345,"componentType":5126,"type":"VEC3","min":[-0.025564743205904961,0.028232678771018982,0.0026886379346251488],"max":[-0.014329799450933933,0.040699038654565811,0.035314369946718216]},{"bufferView":0,"byteOffset":22812,"count":370,"componentType":5126,"type":"VEC3","min":[-0.025630509480834007,0.016965113580226898,0.0065077794715762138],"max":[-0.013552024029195309,0.02816411666572094,0.034993816167116165]},{"bufferView":1,"byteOffset":0,"count":590,"componentType":5126,"type":"VEC2"},{"bufferView":1,"byteOffset":4720,"count":373,"componentType":5126,"type":"VEC2"},{"bufferView":1,"byteOffset":7704,"count":386,"componentType":5126,"type":"VEC2"},{"bufferView":1,"byteOffset":10792,"count":345,"componentType":5126,"type":"VEC2"},{"bufferView":1,"byteOffset":13552,"count":370,"componentType":5126,"type":"VEC2"},{"bufferView":2,"byteOffset":0,"count":207,"componentType":5121,"type":"VEC4","normalized":true},{"bufferView":3,"byteOffset":0,"count":669,"componentType":5125,"type":"SCALAR"},{"bufferView":3,"byteOffset":2676,"count":1611,"componentType":5125,"type":"SCALAR"},{"bufferView":3,"byteOffset":9120,"count":1254,"componentType":5125,"type":"SCALAR"},{"bufferView":3,"byteOffset":14136,"count":1359,"componentType":5125,"type":"SCALAR"},{"bufferView":3,"byteOffset":19572,"count":1215,"componentType":5125,"type":"SCALAR"},{"bufferView":3,"byteOffset":24432,"count":1122,"componentType":5125,"type":"SCALAR"}],"bufferViews":[{"buffer":0,"byteOffset":0,"byteLength":27252,"byteStride":12,"target":34962},{"buffer":0,"byteOffset":27252,"byteLength":16512,"byteStride":8,"target":34962},{"buffer":0,"byteOffset":43764,"byteLength":828,"byteStride":4,"target":34962},{"buffer":0,"byteOffset":44592,"byteLength":28920,"target":34963}],"buffers":[{"byteLength":73512,"uri":"FIRE.bin"}]}