{"asset":{"generator":"3D Builder","version":"2.0"},"scene":0,"scenes":[{"nodes":[0]}],"nodes":[{"children":[1,2,3,4,5,6,7]},{"mesh":0,"matrix":[1,0,0,0,0,-1.1920928955078125E-7,-0.99999988079071045,0,0,0.99999988079071045,-1.1920928955078125E-7,0,0,-0.13373051583766937,-1.97079007193679E-5,1]},{"mesh":1,"matrix":[1,0,0,0,0,-1.1920928955078125E-7,-0.99999988079071045,0,0,0.99999988079071045,-1.1920928955078125E-7,0,0,-0.13373051583766937,-1.97079007193679E-5,1]},{"mesh":2,"matrix":[1,0,0,0,0,-1.1920928955078125E-7,-0.99999988079071045,0,0,0.99999988079071045,-1.1920928955078125E-7,0,0,-0.13373051583766937,-1.97079007193679E-5,1]},{"mesh":3,"matrix":[1,0,0,0,0,-1.1920928955078125E-7,-0.99999988079071045,0,0,0.99999988079071045,-1.1920928955078125E-7,0,0,-0.13373051583766937,-1.97079007193679E-5,1]},{"mesh":4,"matrix":[1,0,0,0,0,-1.1920928955078125E-7,-0.99999988079071045,0,0,0.99999988079071045,-1.1920928955078125E-7,0,0,-0.13373051583766937,-1.97079007193679E-5,1]},{"mesh":5,"matrix":[1,0,0,0,0,-1.1920928955078125E-7,-0.99999988079071045,0,0,0.99999988079071045,-1.1920928955078125E-7,0,0,-0.13373051583766937,-1.97079007193679E-5,1]},{"mesh":6,"matrix":[1,0,0,0,0,-1.1920928955078125E-7,-0.99999988079071045,0,0,0.99999988079071045,-1.1920928955078125E-7,0,0,-0.13373051583766937,-1.97079007193679E-5,1]}],"meshes":[{"primitives":[{"attributes":{"POSITION":0},"mode":4,"indices":3,"material":0},{"attributes":{"POSITION":1,"COLOR_0":2},"mode":4,"indices":4}]},{"primitives":[{"attributes":{"POSITION":5,"COLOR_0":6},"mode":4,"indices":7}]},{"primitives":[{"attributes":{"POSITION":8},"mode":4,"indices":13,"material":1},{"attributes":{"POSITION":9},"mode":4,"indices":14,"material":0},{"attributes":{"POSITION":10},"mode":4,"indices":15,"material":2},{"attributes":{"POSITION":11,"COLOR_0":12},"mode":4,"indices":16}]},{"primitives":[{"attributes":{"POSITION":17,"COLOR_0":18},"mode":4,"indices":19}]},{"primitives":[{"attributes":{"POSITION":20},"mode":4,"indices":23,"material":2},{"attributes":{"POSITION":21,"COLOR_0":22},"mode":4,"indices":24}]},{"primitives":[{"attributes":{"POSITION":25},"mode":4,"indices":29,"material":2},{"attributes":{"POSITION":26},"mode":4,"indices":30,"material":2},{"attributes":{"POSITION":27,"COLOR_0":28},"mode":4,"indices":31}]},{"primitives":[{"attributes":{"POSITION":32,"COLOR_0":33},"mode":4,"indices":34}]}],"materials":[{"name":"Default","pbrMetallicRoughness":{"baseColorFactor":[0.50288659334182739,0.50288659334182739,0.50288659334182739,1],"metallicFactor":0,"roughnessFactor":1},"alphaMode":"OPAQUE"},{"name":"Turquoise","pbrMetallicRoughness":{"baseColorFactor":[0,0.3515326976776123,0.80695247650146484,1],"metallicFactor":0,"roughnessFactor":1},"alphaMode":"OPAQUE"},{"name":"White","pbrMetallicRoughness":{"baseColorFactor":[1,1,1,1],"metallicFactor":0,"roughnessFactor":1},"alphaMode":"OPAQUE"}],"accessors":[{"bufferView":0,"byteOffset":0,"count":117,"componentType":5126,"type":"VEC3","min":[-0.034823600202798843,0.0043744784779846668,0.14881812036037445],"max":[0.037871204316616058,0.05370127409696579,0.22395132482051849]},{"bufferView":0,"byteOffset":1404,"count":1082,"componentType":5126,"type":"VEC3","min":[-0.04589800164103508,-0.0018231263384222984,0.1487165242433548],"max":[0.038430005311965942,0.054006077349185944,0.22405293583869934]},{"bufferView":1,"byteOffset":0,"count":1082,"componentType":5121,"type":"VEC4","normalized":true},{"bufferView":2,"byteOffset":0,"count":312,"componentType":5125,"type":"SCALAR"},{"bufferView":2,"byteOffset":1248,"count":3774,"componentType":5125,"type":"SCALAR"},{"bufferView":3,"byteOffset":0,"count":12,"componentType":5126,"type":"VEC3","min":[0.038430005311965942,0.011740477755665779,0.17365932464599609],"max":[0.04767560213804245,0.046335276216268539,0.20368213951587677]},{"bufferView":4,"byteOffset":0,"count":12,"componentType":5121,"type":"VEC4","normalized":true},{"bufferView":5,"byteOffset":0,"count":60,"componentType":5125,"type":"SCALAR"},{"bufferView":6,"byteOffset":0,"count":15,"componentType":5126,"type":"VEC3","min":[-0.0219711996614933,0.0040188739076256752,0.069214522838592529],"max":[-0.011709598824381828,0.0040188739076256752,0.11046412587165833]},{"bufferView":6,"byteOffset":180,"count":126,"componentType":5126,"type":"VEC3","min":[-0.034671198576688766,0.0043744784779846668,0.053517322987318039],"max":[0.038074400275945663,0.05370127409696579,0.13860732316970825]},{"bufferView":6,"byteOffset":1692,"count":3,"componentType":5126,"type":"VEC3","min":[0.057632405310869217,0.027386875823140144,0.074904121458530426],"max":[0.057683203369379044,0.028250480070710182,0.074904121458530426]},{"bufferView":6,"byteOffset":1728,"count":2007,"componentType":5126,"type":"VEC3","min":[-0.036754000931978226,0.0040188739076256752,0.053364921361207962],"max":[0.060223199427127838,0.054006077349185944,0.13870891928672791]},{"bufferView":7,"byteOffset":0,"count":2007,"componentType":5121,"type":"VEC4","normalized":true},{"bufferView":8,"byteOffset":0,"count":39,"componentType":5125,"type":"SCALAR"},{"bufferView":8,"byteOffset":156,"count":342,"componentType":5125,"type":"SCALAR"},{"bufferView":8,"byteOffset":1524,"count":3,"componentType":5125,"type":"SCALAR"},{"bufferView":8,"byteOffset":1536,"count":8904,"componentType":5125,"type":"SCALAR"},{"bufferView":9,"byteOffset":0,"count":30,"componentType":5126,"type":"VEC3","min":[-0.00906799640506506,0.019157279282808304,0.13870891928672791],"max":[0.010794804431498051,0.039020080119371414,0.1487165242433548]},{"bufferView":10,"byteOffset":0,"count":30,"componentType":5121,"type":"VEC4","normalized":true},{"bufferView":11,"byteOffset":0,"count":168,"componentType":5125,"type":"SCALAR"},{"bufferView":12,"byteOffset":0,"count":30,"componentType":5126,"type":"VEC3","min":[0.043967206031084061,0.021646479144692421,0.044932123273611069],"max":[0.051434807479381561,0.04399847611784935,0.0646425262093544]},{"bufferView":12,"byteOffset":360,"count":251,"componentType":5126,"type":"VEC3","min":[0.043967206031084061,0.0089972764253616333,0.043408121913671494],"max":[0.051434807479381561,0.049027673900127411,0.0699257180094719]},{"bufferView":13,"byteOffset":0,"count":251,"componentType":5121,"type":"VEC4","normalized":true},{"bufferView":14,"byteOffset":0,"count":54,"componentType":5125,"type":"SCALAR"},{"bufferView":14,"byteOffset":216,"count":1116,"componentType":5125,"type":"SCALAR"},{"bufferView":15,"byteOffset":0,"count":156,"componentType":5126,"type":"VEC3","min":[-0.051536798477172852,-0.041548725217580795,0.12245292961597443],"max":[-0.044018398970365524,-0.030169524252414703,0.13815012574195862]},{"bufferView":15,"byteOffset":1872,"count":6,"componentType":5126,"type":"VEC3","min":[-0.0575312003493309,-0.020466724410653114,0.12976811826229095],"max":[-0.037769999355077744,-0.019958725199103355,0.13362893462181091]},{"bufferView":15,"byteOffset":1944,"count":2915,"componentType":5126,"type":"VEC3","min":[-0.060223601758480072,-0.052877124398946762,0.11254692077636719],"max":[-0.035230003297328949,0.039020080119371414,0.15262812376022339]},{"bufferView":16,"byteOffset":0,"count":2915,"componentType":5121,"type":"VEC4","normalized":true},{"bufferView":17,"byteOffset":0,"count":438,"componentType":5125,"type":"SCALAR"},{"bufferView":17,"byteOffset":1752,"count":6,"componentType":5125,"type":"SCALAR"},{"bufferView":17,"byteOffset":1776,"count":13362,"componentType":5125,"type":"SCALAR"},{"bufferView":18,"byteOffset":0,"count":65,"componentType":5126,"type":"VEC3","min":[-0.051485996693372726,-0.054045524448156357,0.11325813084840775],"max":[-0.044018398970365524,-0.052216723561286926,0.11823651939630508]},{"bufferView":19,"byteOffset":0,"count":65,"componentType":5121,"type":"VEC4","normalized":true},{"bufferView":20,"byteOffset":0,"count":228,"componentType":5125,"type":"SCALAR"}],"bufferViews":[{"buffer":0,"byteOffset":0,"byteLength":14388,"byteStride":12,"target":34962},{"buffer":0,"byteOffset":14388,"byteLength":4328,"byteStride":4,"target":34962},{"buffer":0,"byteOffset":18716,"byteLength":16344,"target":34963},{"buffer":0,"byteOffset":35060,"byteLength":144,"byteStride":12,"target":34962},{"buffer":0,"byteOffset":35204,"byteLength":48,"byteStride":4,"target":34962},{"buffer":0,"byteOffset":35252,"byteLength":240,"target":34963},{"buffer":0,"byteOffset":35492,"byteLength":25812,"byteStride":12,"target":34962},{"buffer":0,"byteOffset":61304,"byteLength":8028,"byteStride":4,"target":34962},{"buffer":0,"byteOffset":69332,"byteLength":37152,"target":34963},{"buffer":0,"byteOffset":106484,"byteLength":360,"byteStride":12,"target":34962},{"buffer":0,"byteOffset":106844,"byteLength":120,"byteStride":4,"target":34962},{"buffer":0,"byteOffset":106964,"byteLength":672,"target":34963},{"buffer":0,"byteOffset":107636,"byteLength":3372,"byteStride":12,"target":34962},{"buffer":0,"byteOffset":111008,"byteLength":1004,"byteStride":4,"target":34962},{"buffer":0,"byteOffset":112012,"byteLength":4680,"target":34963},{"buffer":0,"byteOffset":116692,"byteLength":36924,"byteStride":12,"target":34962},{"buffer":0,"byteOffset":153616,"byteLength":11660,"byteStride":4,"target":34962},{"buffer":0,"byteOffset":165276,"byteLength":55224,"target":34963},{"buffer":0,"byteOffset":220500,"byteLength":780,"byteStride":12,"target":34962},{"buffer":0,"byteOffset":221280,"byteLength":260,"byteStride":4,"target":34962},{"buffer":0,"byteOffset":221540,"byteLength":912,"target":34963}],"buffers":[{"byteLength":222452,"uri":"Technobot_avecflame(1).bin"}]}