{"asset":{"generator":"3D Builder","version":"2.0"},"scene":0,"scenes":[{"nodes":[0]}],"nodes":[{"children":[1,2,3,4]},{"mesh":0,"matrix":[0.99999994039535522,0,0,0,0,-1.1920928244535389E-7,-0.99999982118606567,0,0,0.99999982118606567,-1.1920928244535389E-7,0,0,-0.00099723390303552151,1.18879558974605E-10,1]},{"mesh":1,"matrix":[0.99999994039535522,0,0,0,0,-1.1920928244535389E-7,-0.99999982118606567,0,0,0.99999982118606567,-1.1920928244535389E-7,0,0,-0.00099723390303552151,1.18879558974605E-10,1]},{"mesh":2,"matrix":[0.99999994039535522,0,0,0,0,-1.1920928244535389E-7,-0.99999982118606567,0,0,0.99999982118606567,-1.1920928244535389E-7,0,0,-0.00099723390303552151,1.18879558974605E-10,1]},{"mesh":3,"matrix":[0.99999994039535522,0,0,0,0,-1.1920928244535389E-7,-0.99999982118606567,0,0,0.99999982118606567,-1.1920928244535389E-7,0,0,-0.00099723390303552151,1.18879558974605E-10,1]}],"meshes":[{"primitives":[{"attributes":{"POSITION":0},"mode":4,"indices":1,"material":0}]},{"primitives":[{"attributes":{"POSITION":2},"mode":4,"indices":3,"material":0}]},{"primitives":[{"attributes":{"POSITION":4},"mode":4,"indices":5,"material":0}]},{"primitives":[{"attributes":{"POSITION":6},"mode":4,"indices":7,"material":0}]}],"materials":[{"name":"Default","pbrMetallicRoughness":{"baseColorFactor":[0.50288659334182739,0.50288659334182739,0.50288659334182739,1],"metallicFactor":0,"roughnessFactor":1},"alphaMode":"OPAQUE"}],"accessors":[{"bufferView":0,"byteOffset":0,"count":8,"componentType":5126,"type":"VEC3","min":[-0.27119302749633789,0.014847534708678722,0.001000500051304698],"max":[-0.19110295176506042,0.080666661262512207,0.0010015000589191914]},{"bufferView":1,"byteOffset":0,"count":36,"componentType":5125,"type":"SCALAR"},{"bufferView":2,"byteOffset":0,"count":8,"componentType":5126,"type":"VEC3","min":[-0.30844292044639587,-0.020903564989566803,0.00099815207067877054],"max":[-0.19178247451782227,0.015830704942345619,0.0009982340270653367]},{"bufferView":3,"byteOffset":0,"count":36,"componentType":5125,"type":"SCALAR"},{"bufferView":4,"byteOffset":0,"count":22,"componentType":5126,"type":"VEC3","min":[-0.27099168300628662,-0.085468269884586334,0.00099811307154595852],"max":[0.45374324917793274,0.080523476004600525,0.0009982340270653367]},{"bufferView":5,"byteOffset":0,"count":132,"componentType":5125,"type":"SCALAR"},{"bufferView":6,"byteOffset":0,"count":20,"componentType":5126,"type":"VEC3","min":[-0.4537433385848999,-0.38643792271614075,0.00099723401945084333],"max":[-0.30745482444763184,0.34655433893203735,0.00099808303639292717]},{"bufferView":7,"byteOffset":0,"count":120,"componentType":5125,"type":"SCALAR"}],"bufferViews":[{"buffer":0,"byteOffset":0,"byteLength":96,"byteStride":12,"target":34962},{"buffer":0,"byteOffset":96,"byteLength":144,"target":34963},{"buffer":0,"byteOffset":240,"byteLength":96,"byteStride":12,"target":34962},{"buffer":0,"byteOffset":336,"byteLength":144,"target":34963},{"buffer":0,"byteOffset":480,"byteLength":264,"byteStride":12,"target":34962},{"buffer":0,"byteOffset":744,"byteLength":528,"target":34963},{"buffer":0,"byteOffset":1272,"byteLength":240,"byteStride":12,"target":34962},{"buffer":0,"byteOffset":1512,"byteLength":480,"target":34963}],"buffers":[{"byteLength":1992,"uri":"NAVMESH.bin"}]}