{
	"asset":{
		"generator":"Khronos glTF Blender I/O v4.0.6",
		"version":"2.0"
	},
	"scene":0,
	"scenes":[
		{
			"name":"Scene",
			"nodes":[
				0
			]
		}
	],
	"nodes":[
		{
			"mesh":0,
			"name":"Navmesh"
		}
	],
	"meshes":[
		{
			"name":"Navmesh.007",
			"primitives":[
				{
					"attributes":{
						"POSITION":0,
						"NORMAL":1
					},
					"indices":2
				}
			]
		}
	],
	"accessors":[
		{
			"bufferView":0,
			"componentType":5126,
			"count":14,
			"max":[
				2.901516914367676,
				0.2758392095565796,
				0.5416979789733887
			],
			"min":[
				-2.1984832286834717,
				0.2758392095565796,
				-6.658302307128906
			],
			"type":"VEC3"
		},
		{
			"bufferView":1,
			"componentType":5126,
			"count":14,
			"type":"VEC3"
		},
		{
			"bufferView":2,
			"componentType":5123,
			"count":42,
			"type":"SCALAR"
		}
	],
	"bufferViews":[
		{
			"buffer":0,
			"byteLength":168,
			"byteOffset":0,
			"target":34962
		},
		{
			"buffer":0,
			"byteLength":168,
			"byteOffset":168,
			"target":34962
		},
		{
			"buffer":0,
			"byteLength":84,
			"byteOffset":336,
			"target":34963
		}
	],
	"buffers":[
		{
			"byteLength":420,
			"uri":"data:application/octet-stream;base64,"
		}
	]
}
