{
	"asset":{
		"generator":"Khronos glTF Blender I/O v4.0.6",
		"version":"2.0"
	},
	"scene":0,
	"scenes":[
		{
			"name":"Scene",
			"nodes":[
				0
			]
		}
	],
	"nodes":[
		{
			"mesh":0,
			"name":"Navmesh"
		}
	],
	"meshes":[
		{
			"name":"Navmesh.008",
			"primitives":[
				{
					"attributes":{
						"POSITION":0,
						"NORMAL":1
					},
					"indices":2
				}
			]
		}
	],
	"accessors":[
		{
			"bufferView":0,
			"componentType":5126,
			"count":12,
			"max":[
				2.001516819000244,
				0.2758392095565796,
				0.6999139785766602
			],
			"min":[
				-2.1984832286834717,
				0.2758392095565796,
				-6.80008602142334
			],
			"type":"VEC3"
		},
		{
			"bufferView":1,
			"componentType":5126,
			"count":12,
			"type":"VEC3"
		},
		{
			"bufferView":2,
			"componentType":5123,
			"count":36,
			"type":"SCALAR"
		}
	],
	"bufferViews":[
		{
			"buffer":0,
			"byteLength":144,
			"byteOffset":0,
			"target":34962
		},
		{
			"buffer":0,
			"byteLength":144,
			"byteOffset":144,
			"target":34962
		},
		{
			"buffer":0,
			"byteLength":72,
			"byteOffset":288,
			"target":34963
		}
	],
	"buffers":[
		{
			"byteLength":360,
			"uri":"data:application/octet-stream;base64,"
		}
	]
}
