# Blender 3.6.9
# www.blender.org
mtllib infosecdoor.mtl
o Object.1
v 0.707831 1.723320 0.033508
v 0.020082 3.007865 0.032421
v 1.393287 -0.000459 0.032589
v 1.395693 0.860483 0.033553
v 1.398100 1.721357 0.034469
v 1.402913 3.443172 0.036301
v 1.403074 3.443244 -0.030648
v 1.057895 3.444153 0.035824
v 0.883745 3.014225 0.035113
v 1.055372 2.583281 0.034928
v 0.712073 3.445137 0.035342
v 0.352202 3.446216 -0.015893
v 0.102108 3.446940 -0.028190
v 0.346302 3.446251 -0.031818
v 0.346210 3.446251 -0.032058
v 0.099486 3.446953 -0.032057
v 0.099205 3.446953 -0.032487
v 0.099202 3.446953 -0.032532
v 0.346186 3.446251 -0.032177
v 0.378265 3.446159 -0.032121
v 0.601652 3.445524 -0.031808
v 0.712690 3.445207 -0.031636
v 0.712240 3.445209 -0.031423
v 0.712182 3.445174 0.001840
v 0.766359 3.445016 0.004564
v 0.761757 3.444995 0.035402
v 0.713116 3.445135 0.035344
v 0.961664 3.444427 0.035702
v 1.052242 3.444188 0.018800
v 1.041468 3.444253 -0.013649
v 0.946090 3.444495 0.013523
v 1.035717 3.444288 -0.031049
v 1.035673 3.444289 -0.031194
v 1.055181 2.583353 -0.032048
v 1.397692 1.721430 -0.032482
v 1.338416 1.745521 -0.032539
v 1.337327 1.747450 -0.032536
v 1.327951 1.763829 -0.032541
v 1.324725 1.763838 -0.032543
v 1.306907 1.763889 -0.032571
v 1.304577 1.759842 -0.032582
v 1.296364 1.745640 -0.032588
v 0.707329 1.723394 -0.033490
v 0.364817 2.585316 -0.033057
v 0.022276 3.447173 -0.032641
v 0.018929 2.586246 0.016809
v 0.021310 3.447102 0.034354
v 0.020555 3.143048 0.034030
v 0.021423 3.447174 -0.032168
v 0.022705 3.447170 -0.032075
v 0.022655 3.447170 -0.032166
v 0.034813 3.143003 0.036425
v 0.016681 1.791545 0.031315
v 0.011772 0.003543 -0.035763
v 0.011683 0.003471 0.030689
v 0.012525 0.304857 0.029544
v 0.013045 0.440040 0.031153
v 0.016307 1.656361 0.031122
v 1.395570 0.860556 -0.033398
v 1.393447 -0.000387 -0.034314
v 1.327848 1.727237 -0.032579
v 1.329131 1.729430 -0.032572
v 1.306804 1.727297 -0.032610
v 1.298697 1.741545 -0.032612
v 1.310406 1.727287 -0.032604
v 0.019865 2.584676 -0.033560
v 0.712101 3.445139 0.034700
v 0.652648 3.445346 -0.001080
v 0.384156 3.446123 -0.014295
v 0.602120 3.445523 -0.031517
v 0.601981 3.445523 -0.031615
v 0.378379 3.446158 -0.031763
v 0.378287 3.446159 -0.032003
v 1.338462 1.745448 0.034441
v 1.328963 1.728919 0.034383
v 1.327965 1.727165 0.034377
v 1.308322 1.727220 0.034369
v 1.307047 1.727224 0.034364
v 1.297097 1.744788 0.034365
v 1.296671 1.745567 0.034368
v 1.306482 1.762636 0.034401
v 1.307148 1.763816 0.034403
v 1.325962 1.763763 0.034432
v 1.328068 1.763757 0.034415
v 1.337262 1.747546 0.034414
v 1.296841 1.745643 -0.036422
v 1.305905 1.763930 -0.067947
v 1.336687 1.745571 -0.073955
v 1.315738 1.763935 -0.097802
v 1.306250 1.745705 -0.118785
v 1.323949 1.745639 -0.104258
v 1.315637 1.727343 -0.097842
v 1.292951 1.727399 -0.090323
v 1.281197 1.727459 -0.114702
v 1.281300 1.764052 -0.114662
v 1.293053 1.763992 -0.090284
v 1.288626 1.745714 -0.080787
v 1.124408 1.764477 -0.096242
v 1.123494 1.764503 -0.117137
v 1.122986 1.746236 -0.127628
v 1.123391 1.727910 -0.117176
v 1.124305 1.727885 -0.096281
v 1.124833 1.746185 -0.085810
v 1.305803 1.727339 -0.067986
v 1.327748 1.727266 -0.058874
v 1.328233 1.763831 -0.034951
v 1.305624 1.763788 0.065012
v 1.315336 1.763727 0.094973
v 1.292724 1.763799 0.087329
v 1.301433 1.763755 0.106321
v 1.323518 1.745417 0.101412
v 1.336364 1.745414 0.071109
v 1.305521 1.727195 0.064974
v 1.315233 1.727136 0.094934
v 1.292621 1.727208 0.087290
v 1.288256 1.745544 0.077805
v 1.305768 1.745452 0.115836
v 1.234203 1.745645 0.125852
v 1.233865 1.727345 0.115334
v 1.122919 1.727661 0.113699
v 1.123929 1.727681 0.092778
v 1.124032 1.764274 0.092817
v 1.123021 1.764253 0.113738
v 1.122457 1.745965 0.124163
v 1.124496 1.746005 0.082350
v 0.032918 1.791490 0.039617
v 0.032545 1.656307 0.039484
v 0.036650 3.142994 0.040940
v 0.036277 3.007810 0.040807
v 0.029187 0.439986 0.038294
v 0.028814 0.304802 0.038162
v 0.008828 0.304866 0.031075
v 0.012850 1.656369 0.032501
vn -1.0000 0.0028 -0.0031
vn 0.0424 0.0652 0.9970
vn -1.0000 0.0028 -0.0014
vn -0.3601 -0.6220 0.6952
vn 0.0016 0.0059 1.0000
vn 0.0243 -0.0676 0.9974
vn -0.0044 0.0038 1.0000
vn -0.0014 -0.0011 1.0000
vn -0.0028 -1.0000 -0.0011
vn -0.0015 -0.0025 1.0000
vn 0.4552 -0.0004 -0.8904
vn 1.0000 -0.0028 0.0024
vn -0.0015 -0.0010 1.0000
vn 0.0080 0.0020 1.0000
vn -0.0013 -0.0046 1.0000
vn -0.0014 -0.0009 1.0000
vn -0.0029 0.2428 0.9701
vn -0.0007 -0.1099 0.9939
vn -0.0014 -0.0010 1.0000
vn -0.0034 -0.0027 1.0000
vn -0.4551 0.0207 0.8902
vn -0.0013 -0.0011 1.0000
vn -0.3706 0.0024 -0.9288
vn -0.3342 -0.0000 0.9425
vn -0.0033 -0.0008 1.0000
vn 0.4597 -0.0238 -0.8878
vn -0.0028 -1.0000 -0.0010
vn -0.0015 -0.0026 1.0000
vn -0.4045 0.0011 0.9145
vn 0.0011 0.0011 -1.0000
vn -0.0008 -0.0009 1.0000
vn -0.0567 -0.0197 0.9982
vn 0.9263 -0.0022 -0.3768
vn -0.0024 -0.0014 1.0000
vn -0.4599 0.0004 0.8880
vn -0.9995 0.0039 -0.0304
vn 0.0016 0.0022 -1.0000
vn 0.0030 1.0000 0.0009
vn 0.4676 -0.0004 -0.8839
vn -0.0031 -0.0009 1.0000
vn -1.0000 0.0028 -0.0017
vn 0.0014 0.0011 -1.0000
vn -0.3825 0.0125 -0.9239
vn -1.0000 0.0028 -0.0013
vn 0.0014 0.0061 -1.0000
vn -0.3945 -0.0096 0.9189
vn 0.0016 -0.0198 -0.9998
vn -0.0029 -0.0293 0.9996
vn 0.0015 0.0007 -1.0000
vn -0.0505 -0.0404 -0.9979
vn 0.0010 0.0011 -1.0000
vn 0.0013 0.0065 -1.0000
vn 0.0015 0.0012 -1.0000
vn 0.0015 0.0010 -1.0000
vn -0.4045 0.0121 0.9145
vn -0.0012 -0.0010 1.0000
vn -0.0042 -0.0008 -1.0000
vn 0.0038 0.0019 -1.0000
vn 0.0006 0.0008 -1.0000
vn 0.0016 0.0011 -1.0000
vn 0.0023 0.0014 -1.0000
vn -0.0003 0.0006 -1.0000
vn 0.0015 0.0011 -1.0000
vn 0.3038 0.1212 -0.9450
vn -0.4849 0.0023 -0.8746
vn -0.4960 0.0023 -0.8683
vn 0.0015 0.0009 -1.0000
vn -0.9952 0.0027 0.0974
vn 0.9826 -0.0065 0.1855
vn -0.9999 0.0025 0.0146
vn 0.0034 0.0011 -1.0000
vn -0.1656 -0.0006 0.9862
vn 0.0028 1.0000 -0.0028
vn 0.0026 0.0069 1.0000
vn -0.0016 -0.0011 1.0000
vn 0.0030 1.0000 0.0011
vn 0.0031 1.0000 0.0044
vn 0.0029 1.0000 0.0051
vn 0.0014 0.0010 -1.0000
vn 0.0018 0.0011 -1.0000
vn 0.0016 0.0010 -1.0000
vn 0.0031 1.0000 0.0010
vn 0.0029 1.0000 0.0010
vn -0.0019 -0.0013 1.0000
vn -0.0015 -0.0011 1.0000
vn 0.0028 1.0000 0.0011
vn 0.0028 1.0000 0.0040
vn 0.0018 1.0000 0.0024
vn 0.0028 1.0000 -0.0000
vn 0.0028 1.0000 -0.0018
vn 0.0029 1.0000 -0.0030
vn 0.0029 1.0000 0.0030
vn 0.0028 1.0000 0.0035
vn 0.0029 1.0000 -0.0043
vn 0.0012 0.0008 -1.0000
vn 0.0029 1.0000 0.0013
vn 0.0029 1.0000 0.0011
vn 0.8081 0.4821 -0.3386
vn -0.0321 -0.4957 0.8679
vn 0.8556 0.4853 0.1801
vn 0.6927 0.7189 0.0587
vn -0.8549 0.4917 -0.1654
vn 0.8668 0.4961 0.0501
vn -0.0258 0.4658 0.8845
vn -0.0232 0.4669 -0.8840
vn -0.0259 -0.4642 -0.8854
vn 0.8659 -0.4978 0.0491
vn -0.8622 0.4966 -0.0995
vn 0.8684 -0.4936 0.0467
vn -0.0293 0.4947 0.8686
vn -0.8776 0.4788 0.0254
vn -0.7851 -0.4216 -0.4536
vn -0.0284 -0.4669 0.8838
vn 0.8697 0.4907 0.0522
vn -0.0117 0.4955 0.8686
vn 0.0325 0.6746 0.7375
vn -0.0145 -0.4980 0.8670
vn -0.7394 0.6717 -0.0460
vn -0.8766 -0.4800 -0.0347
vn -0.8693 -0.4924 -0.0438
vn -0.9990 0.0035 0.0441
vn 0.7777 -0.5798 -0.2429
vn -0.0030 -1.0000 -0.0011
vn 0.3446 0.6259 -0.6996
vn -0.0029 -1.0000 -0.0011
vn 0.8754 0.4821 -0.0360
vn 0.0028 1.0000 0.0010
vn 0.0932 -0.7275 0.6797
vn 0.7410 0.6554 -0.1462
vn 0.0150 0.4977 -0.8672
vn 0.0146 -0.2373 -0.9713
vn 0.5527 -0.4880 -0.6756
vn -0.7825 0.4276 -0.4526
vn 0.8661 -0.4998 -0.0044
vn 0.8634 0.4943 0.1016
vn 0.8854 -0.4633 -0.0375
vn 0.8632 -0.5049 -0.0038
vn 0.5525 0.4837 0.6787
vn -0.8700 0.4912 -0.0429
vn 0.0405 -0.4944 -0.8683
vn -0.9990 0.0020 0.0441
vn -0.0268 0.4964 -0.8677
vn -0.0029 -1.0000 -0.0010
vn -0.9990 0.0029 0.0437
vn -0.8809 -0.4446 0.1624
vn -0.8641 -0.4917 -0.1079
vn -0.8641 -0.4917 -0.1078
vn 0.5552 0.4870 -0.6742
vn -0.7867 -0.4209 0.4515
vn 0.5535 0.4854 0.6768
vn 0.8072 0.4810 0.3421
vn -0.7701 -0.6201 -0.1495
vn -0.9988 0.0028 -0.0491
vn 0.8048 -0.4856 0.3412
vn -0.9990 0.0026 0.0437
vn -0.0142 -0.4965 0.8679
vn -0.0297 -0.4937 -0.8691
vn 0.5495 -0.4891 0.6774
vn -0.7664 0.6263 0.1429
vn 0.2108 -0.4900 0.8458
vn 0.7407 -0.6537 0.1554
vn -0.8607 0.4978 -0.1067
vn 0.3413 -0.6256 -0.7015
vn -0.9988 0.0028 -0.0482
vn -0.0027 -1.0000 -0.0010
vn 0.8057 -0.4852 -0.3398
vn -0.9988 0.0023 -0.0483
vn 0.1228 0.4805 0.8683
vn -0.7841 0.4249 0.4523
vn -0.7373 -0.6752 0.0201
vn -0.9988 0.0031 -0.0488
vn 0.0471 0.2795 -0.9590
vn 0.0029 1.0000 -0.0000
vn 0.0032 1.0000 -0.0000
vn 0.0028 1.0000 -0.0022
vn 0.0029 1.0000 0.0008
vn 0.0030 1.0000 0.0018
vn 0.0028 1.0000 0.0070
vn 0.0020 1.0000 0.0033
vn 0.0028 1.0000 0.0016
vn 0.0028 1.0000 -0.0063
s 0
usemtl Default_0
f 58//1 53//1 46//1
f 53//2 127//2 4//2
f 54//3 58//3 46//3
f 4//4 127//4 58//4
f 58//5 130//5 4//5
f 130//6 56//6 4//6
f 4//7 56//7 55//7
f 4//8 55//8 3//8
f 3//9 55//9 60//9
f 5//10 75//10 76//10
f 126//11 127//11 53//11
f 4//12 3//12 7//12
f 7//12 5//12 4//12
f 6//12 5//12 7//12
f 6//8 8//8 9//8
f 9//13 10//13 6//13
f 10//14 83//14 84//14
f 10//13 9//13 1//13
f 80//8 10//8 1//8
f 79//15 80//15 1//15
f 78//16 79//16 1//16
f 77//17 78//17 1//17
f 76//18 77//18 1//18
f 5//19 76//19 1//19
f 1//8 4//8 5//8
f 53//20 4//20 1//20
f 53//21 133//21 126//21
f 5//22 6//22 10//22
f 53//23 58//23 133//23
f 8//22 28//22 9//22
f 133//24 127//24 126//24
f 1//25 9//25 53//25
f 10//8 80//8 81//8
f 52//26 129//26 2//26
f 133//27 58//27 127//27
f 5//28 74//28 75//28
f 58//29 57//29 130//29
f 59//30 60//30 54//30
f 10//31 74//31 5//31
f 10//32 85//32 74//32
f 128//33 129//33 52//33
f 10//34 84//34 85//34
f 2//35 129//35 128//35
f 132//24 131//24 130//24
f 46//36 2//36 48//36
f 35//37 61//37 62//37
f 128//38 52//38 48//38
f 130//39 131//39 56//39
f 2//40 53//40 9//40
f 46//41 53//41 2//41
f 66//42 45//42 43//42
f 57//43 56//43 132//43
f 56//44 54//44 55//44
f 61//45 43//45 65//45
f 54//9 60//9 55//9
f 2//46 128//46 48//46
f 65//47 43//47 63//47
f 52//48 2//48 9//48
f 63//49 43//49 64//49
f 43//50 59//50 66//50
f 59//51 7//51 60//51
f 64//52 43//52 42//52
f 35//53 62//53 36//53
f 33//54 7//54 34//54
f 60//12 7//12 3//12
f 57//55 132//55 130//55
f 10//56 81//56 82//56
f 56//3 58//3 54//3
f 7//42 35//42 34//42
f 34//42 35//42 36//42
f 34//57 36//57 37//57
f 34//58 37//58 38//58
f 34//59 38//59 39//59
f 34//60 39//60 40//60
f 34//61 40//61 41//61
f 34//62 41//62 42//62
f 42//63 43//63 34//63
f 44//63 34//63 43//63
f 44//64 43//64 45//64
f 49//65 45//65 66//65
f 49//66 66//66 54//66
f 35//67 43//67 61//67
f 58//68 56//68 57//68
f 47//69 54//69 46//69
f 46//70 48//70 47//70
f 7//71 59//71 35//71
f 47//72 48//72 52//72
f 16//73 17//73 51//73
f 47//74 52//74 9//74
f 10//75 82//75 83//75
f 59//63 43//63 35//63
f 47//76 50//76 49//76
f 51//77 45//77 49//77
f 45//78 51//78 17//78
f 44//79 45//79 18//79
f 44//42 18//42 19//42
f 44//80 19//80 20//80
f 20//42 21//42 44//42
f 22//81 44//81 21//81
f 23//82 24//82 22//82
f 25//83 22//83 24//83
f 9//56 26//56 27//56
f 9//84 27//84 11//84
f 26//85 9//85 28//85
f 29//86 30//86 31//86
f 22//86 30//86 32//86
f 32//87 33//87 22//87
f 34//79 22//79 33//79
f 34//63 44//63 22//63
f 30//86 22//86 25//86
f 31//86 30//86 25//86
f 11//88 67//88 68//88
f 47//8 9//8 11//8
f 11//86 69//86 47//86
f 69//86 12//86 47//86
f 13//86 47//86 12//86
f 14//89 15//89 16//89
f 17//90 16//90 15//90
f 15//91 14//91 73//91
f 72//92 73//92 14//92
f 73//93 72//93 71//93
f 70//89 71//89 72//89
f 49//41 54//41 47//41
f 47//86 13//86 50//86
f 71//94 70//94 23//94
f 132//9 56//9 131//9
f 66//95 59//95 54//95
f 69//86 11//86 68//86
f 67//86 24//86 68//86
f 40//96 39//96 106//96
f 108//97 84//97 107//97
f 91//98 89//98 88//98
f 103//99 102//99 93//99
f 85//100 84//100 108//100
f 108//101 112//101 85//101
f 116//102 81//102 80//102
f 38//86 106//86 39//86
f 74//103 85//103 112//103
f 96//104 103//104 97//104
f 125//105 109//105 116//105
f 115//106 125//106 116//106
f 112//107 75//107 74//107
f 40//108 86//108 41//108
f 112//109 76//109 75//109
f 98//110 103//110 96//110
f 87//111 86//111 40//111
f 40//86 89//86 87//86
f 115//112 116//112 113//112
f 89//86 40//86 106//86
f 103//113 93//113 97//113
f 106//114 37//114 36//114
f 123//115 124//115 118//115
f 123//116 118//116 110//116
f 124//117 119//117 118//117
f 107//97 83//97 82//97
f 99//86 98//86 96//86
f 81//118 116//118 107//118
f 79//119 113//119 80//119
f 96//86 95//86 99//86
f 78//120 113//120 79//120
f 103//121 100//121 102//121
f 92//122 88//122 105//122
f 113//123 78//123 77//123
f 90//124 95//124 89//124
f 105//125 93//125 92//125
f 101//9 94//9 93//9
f 88//126 106//126 36//126
f 107//86 109//86 108//86
f 83//127 107//127 84//127
f 93//9 102//9 101//9
f 118//128 114//128 117//128
f 88//129 89//129 106//129
f 95//130 100//130 99//130
f 101//131 90//131 94//131
f 92//132 90//132 91//132
f 116//133 109//133 107//133
f 94//125 92//125 93//125
f 62//134 105//134 36//134
f 37//135 106//135 38//135
f 105//136 88//136 36//136
f 105//137 62//137 61//137
f 110//138 117//138 111//138
f 107//139 82//139 81//139
f 90//140 101//140 100//140
f 100//141 103//141 98//141
f 114//9 113//9 76//9
f 125//142 122//142 109//142
f 93//143 105//143 104//143
f 61//125 65//125 105//125
f 109//86 123//86 110//86
f 100//144 101//144 102//144
f 97//145 63//145 86//145
f 121//9 115//9 120//9
f 63//146 64//146 86//146
f 42//147 86//147 64//147
f 90//148 89//148 91//148
f 97//149 93//149 104//149
f 109//97 110//97 108//97
f 104//125 105//125 63//125
f 77//9 76//9 113//9
f 110//150 111//150 108//150
f 108//151 111//151 112//151
f 116//152 80//152 113//152
f 124//153 123//153 120//153
f 111//154 114//154 112//154
f 87//97 89//97 96//97
f 114//9 119//9 115//9
f 100//155 98//155 99//155
f 113//9 114//9 115//9
f 124//156 120//156 119//156
f 121//157 125//157 115//157
f 117//158 114//158 111//158
f 87//159 97//159 86//159
f 118//160 119//160 114//160
f 112//161 114//161 76//161
f 42//162 41//162 86//162
f 94//163 90//163 92//163
f 95//97 96//97 89//97
f 121//164 120//164 123//164
f 63//165 105//165 65//165
f 123//86 109//86 122//86
f 92//166 91//166 88//166
f 125//167 123//167 122//167
f 119//9 120//9 115//9
f 110//168 118//168 117//168
f 96//169 97//169 87//169
f 97//170 104//170 63//170
f 123//171 125//171 121//171
f 100//172 95//172 90//172
f 6//86 7//86 29//86
f 29//127 8//127 6//127
f 30//86 29//86 7//86
f 8//86 29//86 28//86
f 51//89 50//89 16//89
f 18//89 17//89 19//89
f 19//173 15//173 20//173
f 50//174 51//174 49//174
f 17//173 18//173 45//173
f 21//175 71//175 22//175
f 71//176 23//176 22//176
f 20//89 73//89 21//89
f 24//97 67//97 25//97
f 67//177 27//177 25//177
f 26//97 25//97 27//97
f 28//86 31//86 26//86
f 31//86 28//86 29//86
f 71//175 21//175 73//175
f 33//178 32//178 7//178
f 32//86 30//86 7//86
f 25//86 26//86 31//86
f 67//179 11//179 27//179
f 12//86 14//86 13//86
f 16//180 13//180 14//180
f 15//181 19//181 17//181
f 73//173 20//173 15//173
f 72//127 69//127 70//127
f 68//86 70//86 69//86
f 70//97 68//97 23//97
f 69//127 72//127 12//127
f 13//180 16//180 50//180
f 14//97 12//97 72//97
f 24//127 23//127 68//127
