{
	"asset":{
		"generator":"Khronos glTF Blender I/O v3.6.28",
		"version":"2.0"
	},
	"extensionsUsed":[
		"KHR_materials_specular",
		"KHR_materials_ior"
	],
	"scene":0,
	"scenes":[
		{
			"name":"Scene",
			"nodes":[
				0
			]
		}
	],
	"nodes":[
		{
			"mesh":0,
			"name":"Object.1",
			"rotation":[
				0.7071068286895752,
				0,
				0,
				0.7071068286895752
			]
		}
	],
	"materials":[
		{
			"doubleSided":true,
			"extensions":{
				"KHR_materials_specular":{
					"specularColorFactor":[
						0,
						0,
						0
					]
				},
				"KHR_materials_ior":{
					"ior":1.4500000476837158
				}
			},
			"name":"white_0.003",
			"pbrMetallicRoughness":{
				"metallicFactor":0
			}
		},
		{
			"doubleSided":true,
			"extensions":{
				"KHR_materials_specular":{
					"specularColorFactor":[
						0,
						0,
						0
					]
				},
				"KHR_materials_ior":{
					"ior":1.4500000476837158
				}
			},
			"name":"yellowbrt_0.003",
			"pbrMetallicRoughness":{
				"baseColorFactor":[
					1,
					0.7836999893188477,
					0,
					1
				],
				"metallicFactor":0
			}
		},
		{
			"doubleSided":true,
			"extensions":{
				"KHR_materials_specular":{
					"specularColorFactor":[
						0,
						0,
						0
					]
				},
				"KHR_materials_ior":{
					"ior":1.4500000476837158
				}
			},
			"name":"ground_1_0.003",
			"pbrMetallicRoughness":{
				"baseColorFactor":[
					0.6588240265846252,
					0.6588240265846252,
					0.6588240265846252,
					1
				],
				"metallicFactor":0
			}
		}
	],
	"meshes":[
		{
			"name":"Object.1",
			"primitives":[
				{
					"attributes":{
						"POSITION":0,
						"NORMAL":1
					},
					"indices":2,
					"material":0
				},
				{
					"attributes":{
						"POSITION":3,
						"NORMAL":4
					},
					"indices":5,
					"material":1
				},
				{
					"attributes":{
						"POSITION":6,
						"NORMAL":7
					},
					"indices":8,
					"material":2
				}
			]
		}
	],
	"accessors":[
		{
			"bufferView":0,
			"componentType":5126,
			"count":1066,
			"max":[
				1.4092010259628296,
				0.06627500057220459,
				0.0051020001992583275
			],
			"min":[
				-0.01362599991261959,
				-0.0363290011882782,
				-3.4574899673461914
			],
			"type":"VEC3"
		},
		{
			"bufferView":1,
			"componentType":5126,
			"count":1066,
			"type":"VEC3"
		},
		{
			"bufferView":2,
			"componentType":5123,
			"count":1365,
			"type":"SCALAR"
		},
		{
			"bufferView":3,
			"componentType":5126,
			"count":890,
			"max":[
				1.343932032585144,
				0.12815099954605103,
				-1.7299829721450806
			],
			"min":[
				1.1249849796295166,
				-0.1305609941482544,
				-1.7675180435180664
			],
			"type":"VEC3"
		},
		{
			"bufferView":4,
			"componentType":5126,
			"count":890,
			"type":"VEC3"
		},
		{
			"bufferView":5,
			"componentType":5123,
			"count":1044,
			"type":"SCALAR"
		},
		{
			"bufferView":6,
			"componentType":5126,
			"count":71,
			"max":[
				1.4092010259628296,
				0.03720900043845177,
				-3.4534709453582764
			],
			"min":[
				0.009831000119447708,
				-0.0326169990003109,
				-3.4574899673461914
			],
			"type":"VEC3"
		},
		{
			"bufferView":7,
			"componentType":5126,
			"count":71,
			"type":"VEC3"
		},
		{
			"bufferView":8,
			"componentType":5123,
			"count":99,
			"type":"SCALAR"
		}
	],
	"bufferViews":[
		{
			"buffer":0,
			"byteLength":12792,
			"byteOffset":0,
			"target":34962
		},
		{
			"buffer":0,
			"byteLength":12792,
			"byteOffset":12792,
			"target":34962
		},
		{
			"buffer":0,
			"byteLength":2730,
			"byteOffset":25584,
			"target":34963
		},
		{
			"buffer":0,
			"byteLength":10680,
			"byteOffset":28316,
			"target":34962
		},
		{
			"buffer":0,
			"byteLength":10680,
			"byteOffset":38996,
			"target":34962
		},
		{
			"buffer":0,
			"byteLength":2088,
			"byteOffset":49676,
			"target":34963
		},
		{
			"buffer":0,
			"byteLength":852,
			"byteOffset":51764,
			"target":34962
		},
		{
			"buffer":0,
			"byteLength":852,
			"byteOffset":52616,
			"target":34962
		},
		{
			"buffer":0,
			"byteLength":198,
			"byteOffset":53468,
			"target":34963
		}
	],
	"buffers":[
		{
			"byteLength":53668,
			"uri":"data:application/octet-stream;base64,"
		}
	]
}
