<?xml version="1.0" encoding="UTF-8" standalone="no"?>
<!DOCTYPE svg PUBLIC "-//W3C//DTD SVG 1.1//EN" "http://www.w3.org/Graphics/SVG/1.1/DTD/svg11.dtd">
<svg version="1.1" xmlns:xl="http://www.w3.org/1999/xlink" xmlns="http://www.w3.org/2000/svg" xmlns:dc="http://purl.org/dc/elements/1.1/" viewBox="610 47 245.00012 245.00012" width="245.00012" height="245.00012">
  <defs/>
  <g id="Canevas_1" stroke="none" stroke-opacity="1" fill-opacity="1" fill="none" stroke-dasharray="none">
    <title>Canevas 1</title>
    <g id="Canevas_1_Calque_1">
      <title>Calque 1</title>
      <g id="Graphic_12">
        <path d="M 819.1205 82.87958 C 771.2814 35.04014 693.7188 35.04014 645.8796 82.87958 C 598.04014 130.71877 598.04014 208.28136 645.8796 256.12055 C 693.7188 303.95998 771.2814 303.95998 819.1205 256.12055 C 866.96 208.28136 866.96 130.71877 819.1205 82.87958 M 819.6697 169.46044 L 819.6697 169.46044 L 800.3339 191.49058 L 803.0283 220.65278 L 774.4208 227.15087 L 759.4435 252.35082 L 732.5001 240.78103 L 705.5568 252.43006 L 690.5795 227.23012 L 661.972 220.73202 L 664.6663 191.49058 L 645.3305 169.46044 L 664.6663 147.35106 L 661.972 118.18886 L 690.5795 111.77 L 705.5568 86.57006 L 732.5001 98.13985 L 759.4435 86.57006 L 774.4208 111.77 L 803.0283 118.2681 L 800.3339 147.4303 Z M 740.4246 209.083 L 740.4246 209.083 L 740.4246 193.23397 L 724.5756 193.23397 L 724.5756 209.083 Z M 740.4246 177.38495 L 740.4246 177.38495 L 740.4246 129.83789 L 724.5756 129.83789 L 724.5756 177.38495 Z" fill="black"/>
      </g>
    </g>
  </g>
</svg>
