<?xml version="1.0" encoding="UTF-8" standalone="no"?>
<!DOCTYPE svg PUBLIC "-//W3C//DTD SVG 1.1//EN" "http://www.w3.org/Graphics/SVG/1.1/DTD/svg11.dtd">
<svg version="1.1" xmlns:xl="http://www.w3.org/1999/xlink" xmlns="http://www.w3.org/2000/svg" xmlns:dc="http://purl.org/dc/elements/1.1/" viewBox="327.50006 380.49994 245.00012 245.00012" width="245.00012" height="245.00012">
  <defs/>
  <g id="Canevas_1" stroke="none" stroke-opacity="1" fill-opacity="1" fill="none" stroke-dasharray="none">
    <title>Canevas 1</title>
    <rect fill="white" x="327.50006" y="380.49994" width="245.00012" height="245.00012"/>
    <g id="Canevas_1_Calque_1">
      <title>Calque 1</title>
      <g id="Graphic_18">
        <path d="M 536.6206 416.3795 C 488.7814 368.5401 411.21883 368.5401 363.37964 416.3795 C 315.5402 464.2187 315.5402 541.7813 363.37964 589.6205 C 411.21883 637.4599 488.7814 637.4599 536.6206 589.6205 C 584.46004 541.7813 584.46004 464.2187 536.6206 416.3795 M 507.11124 474.44444 L 507.11124 474.44444 L 507.11124 488.7222 L 492.19096 488.7222 C 492.5479 491.07806 492.83346 493.4339 492.83346 495.8611 L 492.83346 503 L 507.11124 503 L 507.11124 517.2778 L 492.83346 517.2778 L 492.83346 524.41667 C 492.83346 526.8439 492.5479 529.1997 492.19096 531.55556 L 507.11124 531.55556 L 507.11124 545.83333 L 487.05096 545.83333 C 479.6265 558.61194 465.84846 567.25 450.0001 567.25 C 434.1518 567.25 420.37373 558.61194 412.9493 545.83333 L 392.889 545.83333 L 392.889 531.55556 L 407.8093 531.55556 C 407.45234 529.1997 407.1668 526.8439 407.1668 524.41667 L 407.1668 517.2778 L 392.889 517.2778 L 392.889 503 L 407.1668 503 L 407.1668 495.8611 C 407.1668 493.4339 407.45234 491.07806 407.8093 488.7222 L 392.889 488.7222 L 392.889 474.44444 L 412.9493 474.44444 C 416.1618 468.8761 420.5879 464.09306 425.8707 460.4522 L 414.3057 448.81583 L 424.3715 438.75 L 439.9343 454.2414 C 443.1468 453.4561 446.50207 453.0278 450.0001 453.0278 C 453.4982 453.0278 456.85346 453.4561 460.13735 454.2414 L 475.62873 438.75 L 485.69457 448.81583 L 474.0582 460.4522 C 479.41235 464.09306 483.83846 468.8761 487.05096 474.44444 Z M 464.2779 531.55556 L 464.2779 531.55556 L 464.2779 517.2778 L 435.72234 517.2778 L 435.72234 531.55556 Z M 464.2779 503 L 464.2779 503 L 464.2779 488.7222 L 435.72234 488.7222 L 435.72234 503 Z" fill="black"/>
      </g>
    </g>
  </g>
</svg>
