<?xml version="1.0" encoding="UTF-8" standalone="no"?>
<!DOCTYPE svg PUBLIC "-//W3C//DTD SVG 1.1//EN" "http://www.w3.org/Graphics/SVG/1.1/DTD/svg11.dtd">
<svg version="1.1" xmlns:xl="http://www.w3.org/1999/xlink" xmlns="http://www.w3.org/2000/svg" xmlns:dc="http://purl.org/dc/elements/1.1/" viewBox="609.99994 380.5 245.00012 245.00012" width="245.00012" height="245.00012">
  <defs/>
  <g id="Canevas_1" stroke="none" stroke-opacity="1" fill-opacity="1" fill="none" stroke-dasharray="none">
    <title>Canevas 1</title>
    <rect fill="white" x="609.99994" y="380.5" width="245.00012" height="245.00012"/>
    <g id="Canevas_1_Calque_1">
      <title>Calque 1</title>
      <g id="Graphic_21">
        <path d="M 819.1205 416.3796 C 771.2813 368.54014 693.7187 368.54014 645.8795 416.3796 C 598.0401 464.21877 598.0401 541.78136 645.8795 589.62055 C 693.7187 637.46 771.2813 637.46 819.1205 589.62055 C 866.9599 541.78136 866.9599 464.21877 819.1205 416.3796 M 774.5001 440.00006 L 774.5001 440.00006 C 781.1001 440.00006 786.5001 445.40006 786.5001 452.00006 L 786.5001 536.00006 C 786.5001 542.60006 781.1001 548.00006 774.5001 548.00006 L 750.5001 548.00006 L 732.5001 566.00006 L 714.5001 548.00006 L 690.5001 548.00006 C 683.8401 548.00006 678.5001 542.60006 678.5001 536.00006 L 678.5001 452.00006 C 678.5001 445.40006 683.8401 440.00006 690.5001 440.00006 Z M 732.5001 459.80006 L 732.5001 459.80006 C 723.5601 459.80006 716.3001 467.06006 716.3001 476.00006 C 716.3001 484.94006 723.5601 492.20006 732.5001 492.20006 C 741.4401 492.20006 748.7001 484.94006 748.7001 476.00006 C 748.7001 467.06006 741.4401 459.80006 732.5001 459.80006 Z M 768.5001 524.00006 L 768.5001 524.00006 L 768.5001 518.60006 C 768.5001 506.60006 744.5001 500.00006 732.5001 500.00006 C 720.5001 500.00006 696.5001 506.60006 696.5001 518.60006 L 696.5001 524.00006 Z" fill="black"/>
      </g>
    </g>
  </g>
</svg>
