<?xml version="1.0" encoding="UTF-8" standalone="no"?>
<!DOCTYPE svg PUBLIC "-//W3C//DTD SVG 1.1//EN" "http://www.w3.org/Graphics/SVG/1.1/DTD/svg11.dtd">
<svg version="1.1" xmlns:xl="http://www.w3.org/1999/xlink" xmlns="http://www.w3.org/2000/svg" xmlns:dc="http://purl.org/dc/elements/1.1/" viewBox="327.5 47 245.00012 245.00012" width="245.00012" height="245.00012">
  <defs/>
  <g id="Canevas_1" stroke="none" stroke-opacity="1" fill-opacity="1" fill="none" stroke-dasharray="none">
    <title>Canevas 1</title>
    <rect fill="white" x="327.5" y="47" width="245.00012" height="245.00012"/>
    <g id="Canevas_1_Calque_1">
      <title>Calque 1</title>
      <g id="Graphic_10">
        <path d="M 536.62055 82.87958 C 488.78136 35.04014 411.21877 35.04014 363.37958 82.87958 C 315.54014 130.71877 315.54014 208.28136 363.37958 256.12055 C 411.21877 303.95998 488.78136 303.95998 536.62055 256.12055 C 584.46 208.28136 584.46 130.71877 536.62055 82.87958 M 450.00006 242.35012 L 439.38384 232.6857 C 401.67797 198.49416 376.78477 175.94385 376.78477 148.26847 C 376.78477 125.71816 394.50287 108.00006 417.0532 108.00006 C 429.79264 108.00006 442.0196 113.9305 450.00006 123.30206 C 457.98053 113.9305 470.2075 108.00006 482.94694 108.00006 C 505.49725 108.00006 523.21536 125.71816 523.21536 148.26847 C 523.21536 175.94385 498.32216 198.49416 460.6163 232.75892 L 450.00006 242.35012 Z" fill="black"/>
      </g>
    </g>
  </g>
</svg>
