<?xml version="1.0" encoding="UTF-8" standalone="no"?>
<!DOCTYPE svg PUBLIC "-//W3C//DTD SVG 1.1//EN" "http://www.w3.org/Graphics/SVG/1.1/DTD/svg11.dtd">
<svg version="1.1" xmlns:xl="http://www.w3.org/1999/xlink" xmlns="http://www.w3.org/2000/svg" xmlns:dc="http://purl.org/dc/elements/1.1/" viewBox="45.00006 380.49994 245.00012 245.00012" width="245.00012" height="245.00012">
  <defs/>
  <g id="Canevas_1" stroke="none" stroke-opacity="1" fill-opacity="1" fill="none" stroke-dasharray="none">
    <title>Canevas 1</title>
    <rect fill="white" x="45.00006" y="380.49994" width="245.00012" height="245.00012"/>
    <g id="Canevas_1_Calque_1">
      <title>Calque 1</title>
      <g id="Graphic_16">
        <path d="M 254.1206 416.3795 C 206.28142 368.5401 128.71883 368.5401 80.87964 416.3795 C 33.040203 464.2187 33.040203 541.7813 80.87964 589.6205 C 128.71883 637.4599 206.28142 637.4599 254.1206 589.6205 C 301.96004 541.7813 301.96004 464.2187 254.1206 416.3795 M 204.56673 519.6 L 204.56673 519.6 L 193.8334 508.86667 C 194.0334 507.46667 194.16673 506.06667 194.16673 504.66667 C 194.16673 489.93333 182.2334 478 167.50006 478 C 166.10006 478 164.70006 478.2 163.36673 478.4 L 152.56673 467.6 C 157.16673 465.73333 162.2334 464.66667 167.50006 464.66667 C 189.56673 464.66667 207.50006 482.6 207.50006 504.66667 C 207.50006 509.93333 206.4334 515 204.56673 519.6 Z M 167.50006 451.33333 L 167.50006 451.33333 C 158.50006 451.33333 149.96673 453.6 142.50006 457.53333 L 132.76673 447.8 C 142.90006 441.66667 154.76673 438 167.50006 438 C 204.30006 438 234.16673 467.86667 234.16673 504.66667 C 234.16673 517.4 230.56673 529.26667 224.30006 539.4 L 214.50006 529.6 C 218.50006 522.13333 220.8334 513.66667 220.8334 504.66667 C 220.8334 475.2 196.96673 451.33333 167.50006 451.33333 Z M 109.30006 441.33333 L 109.30006 441.33333 L 115.96673 448 L 227.50006 559.5333 L 219.0334 568 L 168.96673 517.93333 L 168.90006 517.86667 L 167.50006 518 C 160.16673 518 154.16673 512 154.16673 504.66667 L 154.30006 503.26667 L 143.76673 492.73333 C 141.96673 496.33333 140.8334 500.33333 140.8334 504.66667 C 140.8334 514.53333 146.2334 523 154.16673 527.66667 L 147.50006 539.26667 C 135.56673 532.33333 127.50006 519.46667 127.50006 504.66667 C 127.50006 496.66667 129.90006 489.2 133.90006 483 L 124.36673 473.4 C 117.96673 482.13333 114.16673 492.93333 114.16673 504.66667 C 114.16673 524.4 124.90006 541.53333 140.76673 550.8 L 134.10006 562.3333 C 114.2334 550.8 100.8334 529.33333 100.8334 504.66667 C 100.8334 489.26667 106.10006 475.13333 114.8334 463.8 L 100.8334 449.8 Z" fill="black"/>
      </g>
    </g>
  </g>
</svg>
