{
	"asset":{
		"generator":"Khronos glTF Blender I/O v4.0.6",
		"version":"2.0"
	},
	"scene":0,
	"scenes":[
		{
			"name":"Scene",
			"nodes":[
				0
			]
		}
	],
	"nodes":[
		{
			"mesh":0,
			"name":"Navmesh"
		}
	],
	"meshes":[
		{
			"name":"Navmesh.001",
			"primitives":[
				{
					"attributes":{
						"POSITION":0,
						"NORMAL":1
					},
					"indices":2
				}
			]
		}
	],
	"accessors":[
		{
			"bufferView":0,
			"componentType":5126,
			"count":1191,
			"max":[
				2231.33447265625,
				0.2199999988079071,
				1334.2615966796875
			],
			"min":[
				1051.13427734375,
				0.2199999988079071,
				559.9616088867188
			],
			"type":"VEC3"
		},
		{
			"bufferView":1,
			"componentType":5126,
			"count":1191,
			"type":"VEC3"
		},
		{
			"bufferView":2,
			"componentType":5123,
			"count":3597,
			"type":"SCALAR"
		}
	],
	"bufferViews":[
		{
			"buffer":0,
			"byteLength":14292,
			"byteOffset":0,
			"target":34962
		},
		{
			"buffer":0,
			"byteLength":14292,
			"byteOffset":14292,
			"target":34962
		},
		{
			"buffer":0,
			"byteLength":7194,
			"byteOffset":28584,
			"target":34963
		}
	],
	"buffers":[
		{
			"byteLength":35780,
			"uri":"data:application/octet-stream;base64,"
		}
	]
}
