{"asset":{"generator":"3D Builder","version":"2.0"},"scene":0,"scenes":[{"nodes":[0,1]}],"nodes":[{"mesh":0,"matrix":[1,0,0,0,0,-1.1920928955078125E-7,-0.99999988079071045,0,0,0.99999988079071045,-1.1920928955078125E-7,0,-1.8924475320147849E-9,0.020053097978234291,6.373996885855604E-10,1]},{"mesh":1,"matrix":[39.370079040527344,0,0,0,0,-4.6932791519793682E-6,-39.370075225830078,0,0,39.370075225830078,-4.6932791519793682E-6,0,1.3598749319498893E-5,0.011134817264974117,0.036738663911819458,1]}],"meshes":[{"primitives":[{"attributes":{"POSITION":0,"COLOR_0":1},"mode":4,"indices":2}]},{"primitives":[{"attributes":{"POSITION":3},"mode":4,"indices":7,"material":0},{"attributes":{"POSITION":4},"mode":4,"indices":8,"material":0},{"attributes":{"POSITION":5,"COLOR_0":6},"mode":4,"indices":9}]}],"accessors":[{"bufferView":0,"byteOffset":0,"count":65,"componentType":5126,"type":"VEC3","min":[-0.0037797368131577969,-0.046548500657081604,-0.019345562905073166],"max":[0.0037425041664391756,-0.044723797589540482,-0.014355562627315521]},{"bufferView":1,"byteOffset":0,"count":65,"componentType":5121,"type":"VEC4","normalized":true},{"bufferView":2,"byteOffset":0,"count":228,"componentType":5125,"type":"SCALAR"},{"bufferView":3,"byteOffset":0,"count":6,"componentType":5126,"type":"VEC3","min":[-0.00024854773073457181,-0.00032919217483140528,-7.1508678956888616E-5],"max":[0.0002534344675950706,-0.00031710739131085575,2.5169409127556719E-5]},{"bufferView":3,"byteOffset":72,"count":177,"componentType":5126,"type":"VEC3","min":[-9.516427235212177E-5,-0.00086463993648067117,-0.00025928721879608929],"max":[9.4473434728570282E-5,-0.00057646492496132851,0.00014136898971628398]},{"bufferView":3,"byteOffset":2196,"count":3278,"componentType":5126,"type":"VEC3","min":[-0.00031733789364807308,-0.0011416596826165915,-0.00050934875616803765],"max":[0.00031664708512835205,0.0011814024765044451,0.00050855969311669469]},{"bufferView":4,"byteOffset":0,"count":3278,"componentType":5121,"type":"VEC4","normalized":true},{"bufferView":5,"byteOffset":0,"count":6,"componentType":5125,"type":"SCALAR"},{"bufferView":5,"byteOffset":24,"count":597,"componentType":5125,"type":"SCALAR"},{"bufferView":5,"byteOffset":2412,"count":15531,"componentType":5125,"type":"SCALAR"}],"materials":[{"name":"White","pbrMetallicRoughness":{"baseColorFactor":[1,1,1,1],"metallicFactor":0,"roughnessFactor":1},"alphaMode":"OPAQUE"}],"bufferViews":[{"buffer":0,"byteOffset":0,"byteLength":780,"byteStride":12,"target":34962},{"buffer":0,"byteOffset":780,"byteLength":260,"byteStride":4,"target":34962},{"buffer":0,"byteOffset":1040,"byteLength":912,"target":34963},{"buffer":0,"byteOffset":1952,"byteLength":41532,"byteStride":12,"target":34962},{"buffer":0,"byteOffset":43484,"byteLength":13112,"byteStride":4,"target":34962},{"buffer":0,"byteOffset":56596,"byteLength":64536,"target":34963}],"buffers":[{"byteLength":121132,"uri":"bras.bin"}]}