{"asset":{"generator":"3D Builder","version":"2.0"},"scene":0,"scenes":[{"nodes":[0]}],"nodes":[{"children":[1,2]},{"mesh":0,"matrix":[1,0,0,0,0,-1.1920928955078125E-7,-0.99999988079071045,0,0,0.99999988079071045,-1.1920928955078125E-7,0,3.9732312870910391E-5,-0.052649322897195816,-4.4217948016012087E-5,1]},{"mesh":1,"matrix":[1,0,0,0,0,-1.1920928955078125E-7,-0.99999988079071045,0,0,0.99999988079071045,-1.1920928955078125E-7,0,3.9732312870910391E-5,-0.052649322897195816,-4.4217948016012087E-5,1]}],"meshes":[{"primitives":[{"attributes":{"POSITION":0},"mode":4,"indices":6,"material":0},{"attributes":{"POSITION":1},"mode":4,"indices":7,"material":1},{"attributes":{"POSITION":2},"mode":4,"indices":8,"material":2},{"attributes":{"POSITION":3},"mode":4,"indices":9,"material":0},{"attributes":{"POSITION":4,"COLOR_0":5},"mode":4,"indices":10}]},{"primitives":[{"attributes":{"POSITION":11,"COLOR_0":12},"mode":4,"indices":13}]}],"materials":[{"name":"White","pbrMetallicRoughness":{"baseColorFactor":[1,1,1,1],"metallicFactor":0,"roughnessFactor":1},"alphaMode":"OPAQUE"},{"name":"Default","pbrMetallicRoughness":{"baseColorFactor":[0.50288659334182739,0.50288659334182739,0.50288659334182739,1],"metallicFactor":0,"roughnessFactor":1},"alphaMode":"OPAQUE"},{"name":"Turquoise","pbrMetallicRoughness":{"baseColorFactor":[0,0.3515326976776123,0.80695247650146484,1],"metallicFactor":0,"roughnessFactor":1},"alphaMode":"OPAQUE"}],"accessors":[{"bufferView":0,"byteOffset":0,"count":3,"componentType":5126,"type":"VEC3","min":[0.04587048664689064,-0.0016658245585858822,0.031505364924669266],"max":[0.045912608504295349,-0.00078131433110684156,0.031505364924669266]},{"bufferView":0,"byteOffset":36,"count":219,"componentType":5126,"type":"VEC3","min":[-0.045023329555988312,-0.024705175310373306,0.010108673013746738],"max":[0.026284938678145409,0.024616725742816925,0.095147885382175446]},{"bufferView":0,"byteOffset":2664,"count":21,"componentType":5126,"type":"VEC3","min":[-0.033903792500495911,-0.025042129680514336,0.025777118280529976],"max":[-0.02345816045999527,-0.025000009685754776,0.067012079060077667]},{"bufferView":0,"byteOffset":2916,"count":33,"componentType":5126,"type":"VEC3","min":[0.03218165785074234,-0.0074361907318234444,0.0016005398938432336],"max":[0.03967893123626709,0.014971369877457619,0.021228212863206863]},{"bufferView":0,"byteOffset":3312,"count":1923,"componentType":5126,"type":"VEC3","min":[-0.048477128148078918,-0.025042129680514336,0],"max":[0.048397663980722427,0.024953681975603104,0.095274247229099274]},{"bufferView":1,"byteOffset":0,"count":1923,"componentType":5121,"type":"VEC4","normalized":true},{"bufferView":2,"byteOffset":0,"count":3,"componentType":5125,"type":"SCALAR"},{"bufferView":2,"byteOffset":12,"count":645,"componentType":5125,"type":"SCALAR"},{"bufferView":2,"byteOffset":2592,"count":42,"componentType":5125,"type":"SCALAR"},{"bufferView":2,"byteOffset":2760,"count":69,"componentType":5125,"type":"SCALAR"},{"bufferView":2,"byteOffset":3036,"count":8565,"componentType":5125,"type":"SCALAR"},{"bufferView":3,"byteOffset":0,"count":30,"componentType":5126,"type":"VEC3","min":[-0.02084675244987011,-0.0098791206255555153,0.095274247229099274],"max":[-0.00096636544913053513,0.0099591519683599472,0.10529866814613342]},{"bufferView":4,"byteOffset":0,"count":30,"componentType":5121,"type":"VEC4","normalized":true},{"bufferView":5,"byteOffset":0,"count":168,"componentType":5125,"type":"SCALAR"}],"bufferViews":[{"buffer":0,"byteOffset":0,"byteLength":26388,"byteStride":12,"target":34962},{"buffer":0,"byteOffset":26388,"byteLength":7692,"byteStride":4,"target":34962},{"buffer":0,"byteOffset":34080,"byteLength":37296,"target":34963},{"buffer":0,"byteOffset":71376,"byteLength":360,"byteStride":12,"target":34962},{"buffer":0,"byteOffset":71736,"byteLength":120,"byteStride":4,"target":34962},{"buffer":0,"byteOffset":71856,"byteLength":672,"target":34963}],"buffers":[{"byteLength":72528,"uri":"corps.bin"}]}