{"asset":{"generator":"3D Builder","version":"2.0"},"scene":0,"scenes":[{"nodes":[0]}],"nodes":[{"mesh":0,"matrix":[1,0,0,0,0,-1.1920928955078125E-7,-0.99999988079071045,0,0,0.99999988079071045,-1.1920928955078125E-7,0,-0.016168095171451569,-0.026699880138039589,0.02912023663520813,1]}],"meshes":[{"primitives":[{"attributes":{"POSITION":0,"TEXCOORD_0":6},"mode":4,"indices":12,"material":0},{"attributes":{"POSITION":1,"TEXCOORD_0":7},"mode":4,"indices":13,"material":0},{"attributes":{"POSITION":2,"TEXCOORD_0":8},"mode":4,"indices":14,"material":0},{"attributes":{"POSITION":3,"TEXCOORD_0":9},"mode":4,"indices":15,"material":0},{"attributes":{"POSITION":4,"TEXCOORD_0":10},"mode":4,"indices":16,"material":0},{"attributes":{"POSITION":5,"COLOR_0":11},"mode":4,"indices":17}]}],"materials":[{"pbrMetallicRoughness":{"baseColorFactor":[1,1,1,1],"metallicFactor":0,"roughnessFactor":1,"baseColorTexture":{"index":0,"texCoord":0}},"alphaMode":"OPAQUE"}],"textures":[{"source":0,"sampler":0}],"images":[{"uri":"TextureFeu.png"}],"samplers":[{"magFilter":9729,"wrapS":10497,"wrapT":10497}],"accessors":[{"bufferView":0,"byteOffset":0,"count":624,"componentType":5126,"type":"VEC3","min":[0.0076993461698293686,0.019555315375328064,1.2111663671987571E-8],"max":[0.024377208203077316,0.034508932381868362,0.033407744020223618]},{"bufferView":0,"byteOffset":7488,"count":354,"componentType":5126,"type":"VEC3","min":[0.014693351462483406,0.029388736933469772,0.0019019762985408306],"max":[0.02654484286904335,0.0399639718234539,0.034654263406991959]},{"bufferView":0,"byteOffset":11736,"count":398,"componentType":5126,"type":"VEC3","min":[0.00401295768097043,0.027771411463618279,0.0017558945110067725],"max":[0.015140409581363201,0.040613722056150436,0.034497339278459549]},{"bufferView":0,"byteOffset":16512,"count":355,"componentType":5126,"type":"VEC3","min":[0.0045892787165939808,0.017692528665065765,0.0026886439882218838],"max":[0.017055656760931015,0.02892749197781086,0.035301104187965393]},{"bufferView":0,"byteOffset":20772,"count":369,"componentType":5126,"type":"VEC3","min":[0.017124200239777565,0.017626754939556122,0.0065078013576567173],"max":[0.028323234990239143,0.029705259948968887,0.034989707171916962]},{"bufferView":0,"byteOffset":25200,"count":270,"componentType":5126,"type":"VEC3","min":[0.0060683311894536018,0.019133651629090309,0.033407744020223618],"max":[0.025916405022144318,0.038981728255748749,0.053399760276079178]},{"bufferView":1,"byteOffset":0,"count":624,"componentType":5126,"type":"VEC2"},{"bufferView":1,"byteOffset":4992,"count":354,"componentType":5126,"type":"VEC2"},{"bufferView":1,"byteOffset":7824,"count":398,"componentType":5126,"type":"VEC2"},{"bufferView":1,"byteOffset":11008,"count":355,"componentType":5126,"type":"VEC2"},{"bufferView":1,"byteOffset":13848,"count":369,"componentType":5126,"type":"VEC2"},{"bufferView":2,"byteOffset":0,"count":270,"componentType":5121,"type":"VEC4","normalized":true},{"bufferView":3,"byteOffset":0,"count":1653,"componentType":5125,"type":"SCALAR"},{"bufferView":3,"byteOffset":6612,"count":1242,"componentType":5125,"type":"SCALAR"},{"bufferView":3,"byteOffset":11580,"count":1377,"componentType":5125,"type":"SCALAR"},{"bufferView":3,"byteOffset":17088,"count":1227,"componentType":5125,"type":"SCALAR"},{"bufferView":3,"byteOffset":21996,"count":1074,"componentType":5125,"type":"SCALAR"},{"bufferView":3,"byteOffset":26292,"count":993,"componentType":5125,"type":"SCALAR"}],"bufferViews":[{"buffer":0,"byteOffset":0,"byteLength":28440,"byteStride":12,"target":34962},{"buffer":0,"byteOffset":28440,"byteLength":16800,"byteStride":8,"target":34962},{"buffer":0,"byteOffset":45240,"byteLength":1080,"byteStride":4,"target":34962},{"buffer":0,"byteOffset":46320,"byteLength":30264,"target":34963}],"buffers":[{"byteLength":76584,"uri":"pied.bin"}]}