{"asset":{"generator":"3D Builder","version":"2.0"},"scene":0,"scenes":[{"nodes":[0]}],"nodes":[{"children":[1,2,3,4]},{"mesh":0,"matrix":[1,0,0,0,0,-1.1920928955078125E-7,-0.99999988079071045,0,0,0.99999988079071045,-1.1920928955078125E-7,0,-0.00093152775662019849,-0.18637029826641083,0.026104740798473358,1]},{"mesh":1,"matrix":[1,0,0,0,0,-1.1920928955078125E-7,-0.99999988079071045,0,0,0.99999988079071045,-1.1920928955078125E-7,0,-0.00093152775662019849,-0.18637029826641083,0.026104740798473358,1]},{"mesh":2,"matrix":[1,0,0,0,0,-1.1920928955078125E-7,-0.99999988079071045,0,0,0.99999988079071045,-1.1920928955078125E-7,0,0,-0.037621095776557922,-2.23657552851364E-5,1]},{"mesh":3,"matrix":[1,0,0,0,0,-1.1920928955078125E-7,-0.99999988079071045,0,0,0.99999988079071045,-1.1920928955078125E-7,0,0,-0.037621095776557922,-2.23657552851364E-5,1]}],"meshes":[{"primitives":[{"attributes":{"POSITION":0,"COLOR_0":1},"mode":4,"indices":2}]},{"primitives":[{"attributes":{"POSITION":3,"COLOR_0":4},"mode":4,"indices":5}]},{"primitives":[{"attributes":{"POSITION":6,"COLOR_0":7},"mode":4,"indices":8}]},{"primitives":[{"attributes":{"POSITION":9,"COLOR_0":12},"mode":4,"indices":14},{"attributes":{"POSITION":10},"mode":4,"indices":15,"material":0},{"attributes":{"POSITION":11,"COLOR_0":13},"mode":4,"indices":16}]}],"accessors":[{"bufferView":0,"byteOffset":0,"count":30,"componentType":5126,"type":"VEC3","min":[0.016776010394096375,-0.0017913281917572021,0.19376417994499207],"max":[0.02670760452747345,-9.1476365923881531E-5,0.20369568467140198]},{"bufferView":1,"byteOffset":0,"count":30,"componentType":5121,"type":"VEC4","normalized":true},{"bufferView":2,"byteOffset":0,"count":168,"componentType":5125,"type":"SCALAR"},{"bufferView":3,"byteOffset":0,"count":30,"componentType":5126,"type":"VEC3","min":[-0.025217145681381226,-0.0017913281917572021,0.19376417994499207],"max":[-0.01528555154800415,-9.1476365923881531E-5,0.20369568467140198]},{"bufferView":4,"byteOffset":0,"count":30,"componentType":5121,"type":"VEC4","normalized":true},{"bufferView":5,"byteOffset":0,"count":168,"componentType":5125,"type":"SCALAR"},{"bufferView":6,"byteOffset":0,"count":12,"componentType":5126,"type":"VEC3","min":[0.037471368908882141,-0.014351797290146351,0.024930998682975769],"max":[0.0467924140393734,0.020199719816446304,0.054953008890151978]},{"bufferView":7,"byteOffset":0,"count":12,"componentType":5121,"type":"VEC4","normalized":true},{"bufferView":8,"byteOffset":0,"count":60,"componentType":5125,"type":"SCALAR"},{"bufferView":9,"byteOffset":0,"count":65,"componentType":5126,"type":"VEC3","min":[0.016355771571397781,-0.025061272084712982,0.0097531350329518318],"max":[0.01714165136218071,-0.022138055413961411,0.027252975851297379]},{"bufferView":9,"byteOffset":780,"count":202,"componentType":5126,"type":"VEC3","min":[-0.037546232342720032,-0.02621835470199585,7.4867864896077663E-5],"max":[0.036947291344404221,0.027536775916814804,0.0752047747373581]},{"bufferView":9,"byteOffset":3204,"count":1522,"componentType":5126,"type":"VEC3","min":[-0.0467924140393734,-0.02621835470199585,0],"max":[0.037471368908882141,0.027873679995536804,0.075242199003696442]},{"bufferView":10,"byteOffset":0,"count":65,"componentType":5121,"type":"VEC4","normalized":true},{"bufferView":10,"byteOffset":260,"count":1522,"componentType":5121,"type":"VEC4","normalized":true},{"bufferView":11,"byteOffset":0,"count":198,"componentType":5125,"type":"SCALAR"},{"bufferView":11,"byteOffset":792,"count":576,"componentType":5125,"type":"SCALAR"},{"bufferView":11,"byteOffset":3096,"count":5118,"componentType":5125,"type":"SCALAR"}],"materials":[{"name":"Default","pbrMetallicRoughness":{"baseColorFactor":[0.50288659334182739,0.50288659334182739,0.50288659334182739,1],"metallicFactor":0,"roughnessFactor":1},"alphaMode":"OPAQUE"}],"bufferViews":[{"buffer":0,"byteOffset":0,"byteLength":360,"byteStride":12,"target":34962},{"buffer":0,"byteOffset":360,"byteLength":120,"byteStride":4,"target":34962},{"buffer":0,"byteOffset":480,"byteLength":672,"target":34963},{"buffer":0,"byteOffset":1152,"byteLength":360,"byteStride":12,"target":34962},{"buffer":0,"byteOffset":1512,"byteLength":120,"byteStride":4,"target":34962},{"buffer":0,"byteOffset":1632,"byteLength":672,"target":34963},{"buffer":0,"byteOffset":2304,"byteLength":144,"byteStride":12,"target":34962},{"buffer":0,"byteOffset":2448,"byteLength":48,"byteStride":4,"target":34962},{"buffer":0,"byteOffset":2496,"byteLength":240,"target":34963},{"buffer":0,"byteOffset":2736,"byteLength":21468,"byteStride":12,"target":34962},{"buffer":0,"byteOffset":24204,"byteLength":6348,"byteStride":4,"target":34962},{"buffer":0,"byteOffset":30552,"byteLength":23568,"target":34963}],"buffers":[{"byteLength":54120,"uri":"tete.bin"}]}