# Blender 3.5.1
# www.blender.org
mtllib home.mtl
o Ellipse-copie
v 0.003115 0.000000 0.095761
v -0.011131 0.000000 0.094801
v -0.024795 0.000000 0.092006
v -0.037751 0.000000 0.087501
v -0.049875 0.000000 0.081410
v -0.061041 0.000000 0.073860
v -0.071123 0.000000 0.064975
v -0.079998 0.000000 0.054881
v -0.087540 0.000000 0.043703
v -0.093623 0.000000 0.031566
v -0.098124 0.000000 0.018595
v -0.100915 0.000000 0.004916
v -0.101874 0.000000 -0.009347
v -0.100915 0.000000 -0.023609
v -0.098124 0.000000 -0.037289
v -0.093623 0.000000 -0.050260
v -0.087540 0.000000 -0.062397
v -0.079998 0.000000 -0.073575
v -0.071123 0.000000 -0.083669
v -0.061041 0.000000 -0.092554
v -0.049875 0.000000 -0.100104
v -0.037751 0.000000 -0.106195
v -0.024795 0.000000 -0.110700
v -0.011131 0.000000 -0.113495
v 0.003115 0.000000 -0.114455
v 0.017361 0.000000 -0.113495
v 0.031025 0.000000 -0.110700
v 0.043981 0.000000 -0.106195
v 0.056105 0.000000 -0.100104
v 0.067270 0.000000 -0.092554
v 0.077353 0.000000 -0.083669
v 0.086228 0.000000 -0.073575
v 0.093770 0.000000 -0.062397
v 0.099853 0.000000 -0.050260
v 0.104353 0.000000 -0.037289
v 0.107145 0.000000 -0.023609
v 0.108104 0.000000 -0.009347
v 0.107145 0.000000 0.004915
v 0.104353 0.000000 0.018595
v 0.099853 0.000000 0.031566
v 0.093770 0.000000 0.043703
v 0.086228 0.000000 0.054881
v 0.077353 0.000000 0.064975
v 0.067270 0.000000 0.073860
v 0.056105 0.000000 0.081410
v 0.043981 0.000000 0.087501
v 0.031025 0.000000 0.092006
v 0.017361 0.000000 0.094801
v -0.041362 0.000000 0.065428
v -0.019973 0.000000 0.065428
v -0.019973 0.000000 0.026688
v -0.004164 0.000000 0.026688
v -0.004164 0.000000 0.065428
v 0.047603 0.000000 0.065428
v 0.047603 0.000000 -0.022899
v 0.062947 0.000000 -0.022899
v 0.003120 0.000000 -0.084263
v -0.026793 0.000000 -0.053581
v -0.026793 0.000000 -0.073416
v -0.033923 0.000000 -0.073416
v -0.033923 0.000000 -0.046268
v -0.056706 0.000000 -0.022899
v -0.041362 0.000000 -0.022899
v 0.015055 0.000000 0.046833
v 0.015055 0.000000 0.031027
v 0.030864 0.000000 0.031027
v 0.030864 0.000000 0.046833
v -0.019973 0.000000 0.006543
v -0.019973 0.000000 -0.009263
v -0.004164 0.000000 -0.009263
v -0.004164 0.000000 0.006543
v 0.015055 0.000000 0.006543
v 0.015055 0.000000 -0.009263
v 0.030864 0.000000 -0.009263
v 0.030864 0.000000 0.006543
vn -0.0000 1.0000 -0.0000
vt 0.000000 0.000000
vt 0.013514 0.000000
vt 0.027027 0.000000
vt 0.040541 0.000000
vt 0.054054 0.000000
vt 0.067568 0.000000
vt 0.081081 0.000000
vt 0.094595 0.000000
vt 0.108108 0.000000
vt 0.121622 0.000000
vt 0.135135 0.000000
vt 0.148649 0.000000
vt 0.162162 0.000000
vt 0.175676 0.000000
vt 0.189189 0.000000
vt 0.202703 0.000000
vt 0.216216 0.000000
vt 0.229730 0.000000
vt 0.243243 0.000000
vt 0.256757 0.000000
vt 0.270270 0.000000
vt 0.283784 0.000000
vt 0.297297 0.000000
vt 0.310811 0.000000
vt 0.324324 0.000000
vt 0.337838 0.000000
vt 0.351351 0.000000
vt 0.364865 0.000000
vt 0.378378 0.000000
vt 0.391892 0.000000
vt 0.405405 0.000000
vt 0.418919 0.000000
vt 0.432432 0.000000
vt 0.445946 0.000000
vt 0.459459 0.000000
vt 0.472973 0.000000
vt 0.486486 0.000000
vt 0.500000 0.000000
vt 0.513514 0.000000
vt 0.527027 0.000000
vt 0.540541 0.000000
vt 0.554054 0.000000
vt 0.567568 0.000000
vt 0.581081 0.000000
vt 0.594595 0.000000
vt 0.608108 0.000000
vt 0.621622 0.000000
vt 0.635135 0.000000
vt 0.648649 0.000000
vt 0.662162 0.000000
vt 0.675676 0.000000
vt 0.689189 0.000000
vt 0.702703 0.000000
vt 0.716216 0.000000
vt 0.729730 0.000000
vt 0.743243 0.000000
vt 0.756757 0.000000
vt 0.770270 0.000000
vt 0.783784 0.000000
vt 0.797297 0.000000
vt 0.810811 0.000000
vt 0.824324 0.000000
vt 0.837838 0.000000
vt 0.851351 0.000000
vt 0.864865 0.000000
vt 0.878378 0.000000
vt 0.891892 0.000000
vt 0.905405 0.000000
vt 0.918919 0.000000
vt 0.932432 0.000000
vt 0.945946 0.000000
vt 0.959459 0.000000
vt 0.972973 0.000000
vt 0.986486 0.000000
vt 1.000000 0.000000
s 0
usemtl SVGMat.001
f 24/24/1 26/26/1 25/25/1
f 24/24/1 27/27/1 26/26/1
f 23/23/1 27/27/1 24/24/1
f 23/23/1 28/28/1 27/27/1
f 22/22/1 28/28/1 23/23/1
f 22/22/1 29/29/1 28/28/1
f 21/21/1 29/29/1 22/22/1
f 21/21/1 30/30/1 29/29/1
f 20/20/1 30/30/1 21/21/1
f 20/20/1 31/31/1 30/30/1
f 19/19/1 57/57/1 20/20/1
f 57/57/1 31/31/1 20/20/1
f 19/19/1 59/59/1 57/57/1
f 59/59/1 58/58/1 57/57/1
f 56/56/1 31/31/1 57/57/1
f 56/56/1 32/32/1 31/31/1
f 18/18/1 59/59/1 19/19/1
f 56/56/1 33/33/1 32/32/1
f 17/17/1 60/60/1 18/18/1
f 60/60/1 59/59/1 18/18/1
f 17/17/1 61/61/1 60/60/1
f 56/56/1 34/34/1 33/33/1
f 16/16/1 61/61/1 17/17/1
f 56/56/1 35/35/1 34/34/1
f 15/15/1 61/61/1 16/16/1
f 15/15/1 62/62/1 61/61/1
f 56/56/1 36/36/1 35/35/1
f 14/14/1 62/62/1 15/15/1
f 56/56/1 37/37/1 36/36/1
f 13/13/1 62/62/1 14/14/1
f 13/13/1 63/63/1 62/62/1
f 13/13/1 49/49/1 63/63/1
f 54/54/1 56/56/1 55/55/1
f 54/54/1 37/37/1 56/56/1
f 12/12/1 49/49/1 13/13/1
f 54/54/1 38/38/1 37/37/1
f 68/68/1 70/70/1 69/69/1
f 68/68/1 71/71/1 70/70/1
f 72/72/1 74/74/1 73/73/1
f 72/72/1 75/75/1 74/74/1
f 54/54/1 39/39/1 38/38/1
f 11/11/1 49/49/1 12/12/1
f 54/54/1 40/40/1 39/39/1
f 10/10/1 49/49/1 11/11/1
f 50/50/1 52/52/1 51/51/1
f 50/50/1 53/53/1 52/52/1
f 64/64/1 66/66/1 65/65/1
f 64/64/1 67/67/1 66/66/1
f 54/54/1 41/41/1 40/40/1
f 9/9/1 49/49/1 10/10/1
f 54/54/1 42/42/1 41/41/1
f 8/8/1 49/49/1 9/9/1
f 54/54/1 43/43/1 42/42/1
f 7/7/1 49/49/1 8/8/1
f 54/54/1 44/44/1 43/43/1
f 6/6/1 49/49/1 7/7/1
f 6/6/1 50/50/1 49/49/1
f 6/6/1 53/53/1 50/50/1
f 6/6/1 54/54/1 53/53/1
f 6/6/1 44/44/1 54/54/1
f 6/6/1 45/45/1 44/44/1
f 5/5/1 45/45/1 6/6/1
f 5/5/1 46/46/1 45/45/1
f 4/4/1 46/46/1 5/5/1
f 4/4/1 47/47/1 46/46/1
f 3/3/1 47/47/1 4/4/1
f 3/3/1 48/48/1 47/47/1
f 2/2/1 48/48/1 3/3/1
f 2/2/1 1/1/1 48/48/1
o Ellipse-copie
v 0.003115 0.000000 0.095761
v -0.011131 0.000000 0.094801
v -0.024795 0.000000 0.092006
v -0.037751 0.000000 0.087501
v -0.049875 0.000000 0.081410
v -0.061041 0.000000 0.073860
v -0.071123 0.000000 0.064975
v -0.079998 0.000000 0.054881
v -0.087540 0.000000 0.043703
v -0.093623 0.000000 0.031566
v -0.098124 0.000000 0.018595
v -0.100915 0.000000 0.004916
v -0.101874 0.000000 -0.009347
v -0.100915 0.000000 -0.023609
v -0.098124 0.000000 -0.037289
v -0.093623 0.000000 -0.050260
v -0.087540 0.000000 -0.062397
v -0.079998 0.000000 -0.073575
v -0.071123 0.000000 -0.083669
v -0.061041 0.000000 -0.092554
v -0.049875 0.000000 -0.100104
v -0.037751 0.000000 -0.106195
v -0.024795 0.000000 -0.110700
v -0.011131 0.000000 -0.113495
v 0.003115 0.000000 -0.114455
v 0.017361 0.000000 -0.113495
v 0.031025 0.000000 -0.110700
v 0.043981 0.000000 -0.106195
v 0.056105 0.000000 -0.100104
v 0.067270 0.000000 -0.092554
v 0.077353 0.000000 -0.083669
v 0.086228 0.000000 -0.073575
v 0.093770 0.000000 -0.062397
v 0.099853 0.000000 -0.050260
v 0.104353 0.000000 -0.037289
v 0.107145 0.000000 -0.023609
v 0.108104 0.000000 -0.009347
v 0.107145 0.000000 0.004915
v 0.104353 0.000000 0.018595
v 0.099853 0.000000 0.031566
v 0.093770 0.000000 0.043703
v 0.086228 0.000000 0.054881
v 0.077353 0.000000 0.064975
v 0.067270 0.000000 0.073860
v 0.056105 0.000000 0.081410
v 0.043981 0.000000 0.087501
v 0.031025 0.000000 0.092006
v 0.017361 0.000000 0.094801
v -0.041362 0.000000 0.065428
v -0.019973 0.000000 0.065428
v -0.019973 0.000000 0.026688
v -0.004164 0.000000 0.026688
v -0.004164 0.000000 0.065428
v 0.047603 0.000000 0.065428
v 0.047603 0.000000 -0.022899
v 0.062947 0.000000 -0.022899
v 0.003120 0.000000 -0.084263
v -0.026793 0.000000 -0.053581
v -0.026793 0.000000 -0.073416
v -0.033923 0.000000 -0.073416
v -0.033923 0.000000 -0.046268
v -0.056706 0.000000 -0.022899
v -0.041362 0.000000 -0.022899
v 0.015055 0.000000 0.046833
v 0.015055 0.000000 0.031027
v 0.030864 0.000000 0.031027
v 0.030864 0.000000 0.046833
v -0.019973 0.000000 0.006543
v -0.019973 0.000000 -0.009263
v -0.004164 0.000000 -0.009263
v -0.004164 0.000000 0.006543
v 0.015055 0.000000 0.006543
v 0.015055 0.000000 -0.009263
v 0.030864 0.000000 -0.009263
v 0.030864 0.000000 0.006543
vn -0.0000 1.0000 -0.0000
vt 0.000000 0.000000
vt 0.013514 0.000000
vt 0.027027 0.000000
vt 0.040541 0.000000
vt 0.054054 0.000000
vt 0.067568 0.000000
vt 0.081081 0.000000
vt 0.094595 0.000000
vt 0.108108 0.000000
vt 0.121622 0.000000
vt 0.135135 0.000000
vt 0.148649 0.000000
vt 0.162162 0.000000
vt 0.175676 0.000000
vt 0.189189 0.000000
vt 0.202703 0.000000
vt 0.216216 0.000000
vt 0.229730 0.000000
vt 0.243243 0.000000
vt 0.256757 0.000000
vt 0.270270 0.000000
vt 0.283784 0.000000
vt 0.297297 0.000000
vt 0.310811 0.000000
vt 0.324324 0.000000
vt 0.337838 0.000000
vt 0.351351 0.000000
vt 0.364865 0.000000
vt 0.378378 0.000000
vt 0.391892 0.000000
vt 0.405405 0.000000
vt 0.418919 0.000000
vt 0.432432 0.000000
vt 0.445946 0.000000
vt 0.459459 0.000000
vt 0.472973 0.000000
vt 0.486486 0.000000
vt 0.500000 0.000000
vt 0.513514 0.000000
vt 0.527027 0.000000
vt 0.540541 0.000000
vt 0.554054 0.000000
vt 0.567568 0.000000
vt 0.581081 0.000000
vt 0.594595 0.000000
vt 0.608108 0.000000
vt 0.621622 0.000000
vt 0.635135 0.000000
vt 0.648649 0.000000
vt 0.662162 0.000000
vt 0.675676 0.000000
vt 0.689189 0.000000
vt 0.702703 0.000000
vt 0.716216 0.000000
vt 0.729730 0.000000
vt 0.743243 0.000000
vt 0.756757 0.000000
vt 0.770270 0.000000
vt 0.783784 0.000000
vt 0.797297 0.000000
vt 0.810811 0.000000
vt 0.824324 0.000000
vt 0.837838 0.000000
vt 0.851351 0.000000
vt 0.864865 0.000000
vt 0.878378 0.000000
vt 0.891892 0.000000
vt 0.905405 0.000000
vt 0.918919 0.000000
vt 0.932432 0.000000
vt 0.945946 0.000000
vt 0.959459 0.000000
vt 0.972973 0.000000
vt 0.986486 0.000000
vt 1.000000 0.000000
s 0
usemtl SVGMat.001
f 99/99/2 101/101/2 100/100/2
f 99/99/2 102/102/2 101/101/2
f 98/98/2 102/102/2 99/99/2
f 98/98/2 103/103/2 102/102/2
f 97/97/2 103/103/2 98/98/2
f 97/97/2 104/104/2 103/103/2
f 96/96/2 104/104/2 97/97/2
f 96/96/2 105/105/2 104/104/2
f 95/95/2 105/105/2 96/96/2
f 95/95/2 106/106/2 105/105/2
f 94/94/2 132/132/2 95/95/2
f 132/132/2 106/106/2 95/95/2
f 94/94/2 134/134/2 132/132/2
f 134/134/2 133/133/2 132/132/2
f 131/131/2 106/106/2 132/132/2
f 131/131/2 107/107/2 106/106/2
f 93/93/2 134/134/2 94/94/2
f 131/131/2 108/108/2 107/107/2
f 92/92/2 135/135/2 93/93/2
f 135/135/2 134/134/2 93/93/2
f 92/92/2 136/136/2 135/135/2
f 131/131/2 109/109/2 108/108/2
f 91/91/2 136/136/2 92/92/2
f 131/131/2 110/110/2 109/109/2
f 90/90/2 136/136/2 91/91/2
f 90/90/2 137/137/2 136/136/2
f 131/131/2 111/111/2 110/110/2
f 89/89/2 137/137/2 90/90/2
f 131/131/2 112/112/2 111/111/2
f 88/88/2 137/137/2 89/89/2
f 88/88/2 138/138/2 137/137/2
f 88/88/2 124/124/2 138/138/2
f 129/129/2 131/131/2 130/130/2
f 129/129/2 112/112/2 131/131/2
f 87/87/2 124/124/2 88/88/2
f 129/129/2 113/113/2 112/112/2
f 143/143/2 145/145/2 144/144/2
f 143/143/2 146/146/2 145/145/2
f 147/147/2 149/149/2 148/148/2
f 147/147/2 150/150/2 149/149/2
f 129/129/2 114/114/2 113/113/2
f 86/86/2 124/124/2 87/87/2
f 129/129/2 115/115/2 114/114/2
f 85/85/2 124/124/2 86/86/2
f 125/125/2 127/127/2 126/126/2
f 125/125/2 128/128/2 127/127/2
f 139/139/2 141/141/2 140/140/2
f 139/139/2 142/142/2 141/141/2
f 129/129/2 116/116/2 115/115/2
f 84/84/2 124/124/2 85/85/2
f 129/129/2 117/117/2 116/116/2
f 83/83/2 124/124/2 84/84/2
f 129/129/2 118/118/2 117/117/2
f 82/82/2 124/124/2 83/83/2
f 129/129/2 119/119/2 118/118/2
f 81/81/2 124/124/2 82/82/2
f 81/81/2 125/125/2 124/124/2
f 81/81/2 128/128/2 125/125/2
f 81/81/2 129/129/2 128/128/2
f 81/81/2 119/119/2 129/129/2
f 81/81/2 120/120/2 119/119/2
f 80/80/2 120/120/2 81/81/2
f 80/80/2 121/121/2 120/120/2
f 79/79/2 121/121/2 80/80/2
f 79/79/2 122/122/2 121/121/2
f 78/78/2 122/122/2 79/79/2
f 78/78/2 123/123/2 122/122/2
f 77/77/2 123/123/2 78/78/2
f 77/77/2 76/76/2 123/123/2
