<?xml version="1.0" encoding="UTF-8"?>
<!-- Generated by Pixelmator Pro 3.4.1 -->
<svg width="1024" height="1024" viewBox="0 0 1024 1024" xmlns="http://www.w3.org/2000/svg">
    <path id="Ellipse-copie" fill="#000000" stroke="#000000" stroke-width="3" d="M 512 885 C 306.550293 885 140 718.22583 140 512.5 C 140 306.774109 306.550293 140 512 140 C 717.449768 140 884 306.774109 884 512.5 C 884 718.22583 717.449768 885 512 885 Z M 354.408203 777.5 L 430.193359 777.5 L 430.193359 640.207031 L 486.208984 640.207031 L 486.208984 777.5 L 669.632813 777.5 L 669.632813 464.472656 L 724 464.472656 L 512.019531 247 L 406.029297 355.736328 L 406.029297 285.441406 L 380.767578 285.441406 L 380.767578 381.652344 L 300.039063 464.472656 L 354.408203 464.472656 L 354.408203 777.5 Z M 554.306641 711.599609 L 554.306641 655.583984 L 610.322266 655.583984 L 610.322266 711.599609 L 554.306641 711.599609 Z M 430.193359 568.814453 L 430.193359 512.798828 L 486.208984 512.798828 L 486.208984 568.814453 L 430.193359 568.814453 Z M 554.306641 568.814453 L 554.306641 512.798828 L 610.322266 512.798828 L 610.322266 568.814453 L 554.306641 568.814453 Z"/>
</svg>
