{"asset":{"generator":"3D Builder","version":"2.0"},"scene":0,"scenes":[{"nodes":[0]}],"nodes":[{"mesh":0,"matrix":[0.99999994039535522,0,0,0,0,-1.1920928244535389E-7,-0.99999982118606567,0,0,0.99999982118606567,-1.1920928244535389E-7,0,0,-6.0800994106102735E-5,7.2480441787314831E-12,1]}],"meshes":[{"primitives":[{"attributes":{"POSITION":0,"COLOR_0":1},"mode":4,"indices":2}]}],"accessors":[{"bufferView":0,"byteOffset":0,"count":1430,"componentType":5126,"type":"VEC3","min":[-0.015478798188269138,-0.015547998249530792,6.0801001382060349E-5],"max":[0.015174011699855328,0.015548012219369411,0.031115205958485603]},{"bufferView":1,"byteOffset":0,"count":1430,"componentType":5121,"type":"VEC4","normalized":true},{"bufferView":2,"byteOffset":0,"count":4884,"componentType":5125,"type":"SCALAR"}],"bufferViews":[{"buffer":0,"byteOffset":0,"byteLength":17160,"byteStride":12,"target":34962},{"buffer":0,"byteOffset":17160,"byteLength":5720,"byteStride":4,"target":34962},{"buffer":0,"byteOffset":22880,"byteLength":19536,"target":34963}],"buffers":[{"byteLength":42416,"uri":"supermushroom.bin"}]}