{"asset":{"generator":"3D Builder","version":"2.0"},"scene":0,"scenes":[{"nodes":[0,5,6,7,8,9,10,11,12,13,14]}],"nodes":[{"children":[1,2,3,4]},{"mesh":0,"matrix":[0.039370074868202209,0,0,0,0,0.039369922131299973,4.6932598252169555E-8,0,0,-3.0212795820716565E-8,0.039369933307170868,0,-0.004020914901047945,0.012289787642657757,-0.014745084568858147,1]},{"mesh":1,"matrix":[0.039370074868202209,0,0,0,0,0.039369922131299973,4.6932598252169555E-8,0,0,-3.0212795820716565E-8,0.039369933307170868,0,-0.004020914901047945,0.012289787642657757,-0.014745084568858147,1]},{"mesh":2,"matrix":[1,0,0,0,0,0.9999960064888,1.1920881206606282E-6,0,0,-7.6740502663597E-7,0.99999618530273438,0,-0.10612940788269043,0.065207324922084808,-0.074594676494598389,1]},{"mesh":3,"matrix":[0.039370074868202209,0,0,0,0,0.039369922131299973,4.6932598252169555E-8,0,0,-3.0212795820716565E-8,0.039369933307170868,0,-0.004020914901047945,0.012289787642657757,-0.014745084568858147,1]},{"mesh":4,"matrix":[1.1543772220611572,0,0,0,0,0.65993475914001465,-0.9471395611763,0,0,0.947139322757721,0.65993517637252808,0,0,0.14251343905925751,-0.23750066757202148,1]},{"mesh":5,"matrix":[1.1543780565261841,0,0,0,0,0.43522772192955017,-1.0691894292831421,0,0,1.0691895484924316,0.43522739410400391,0,0,0.08848319947719574,-0.23510608077049255,1]},{"mesh":6,"matrix":[1.1543780565261841,0,0,0,0,-0.64470750093460083,-0.95756953954696655,0,0,0.95756930112838745,-0.64470791816711426,0,0,-0.087889149785041809,-0.10855094343423843,1]},{"mesh":7,"matrix":[0.213971346616745,1.0689538717269897,0.37966233491897583,0,1.0056636333465576,-7.2237662607221864E-7,-0.56676995754241943,0,-0.52482873201370239,0.43580570816993713,-0.93124407529830933,0,0.22706608474254608,0.048952460289001465,-0.024201849475502968,1]},{"mesh":8,"matrix":[1.1543780565261841,0,0,0,0,-0.30378162860870361,-1.1136902570724487,0,0,1.1136902570724487,-0.30378162860870361,0,0,-0.045272968709468842,-0.17113007605075836,1]},{"mesh":9,"matrix":[-0.73219060897827148,-0.89011573791503906,0.0646030455827713,0,-0.80418932437896729,0.62180227041244507,-0.547012448310852,0,0.38699492812156677,-0.39195621013641357,-1.0144929885864258,0,-0.2020106315612793,0.22422043979167938,-0.013731345534324646,1]},{"mesh":10,"matrix":[1.1543780565261841,0,0,0,0,-1.0731936693191528,-0.42525839805603027,0,0,0.42525818943977356,-1.0731937885284424,0,0,-0.12944646179676056,-0.033322218805551529,1]},{"mesh":11,"matrix":[1.1543780565261841,0,0,0,0,-1.37612587991498E-7,-1.1543779373168945,0,0,1.1543779373168945,-1.37612587991498E-7,0,0,0.03930172324180603,-0.20605488121509552,1]},{"mesh":12,"matrix":[1.1543780565261841,0,0,0,0,-0.38113689422607422,-1.0896416902542114,0,0,1.0896422863006592,-0.38113698363304138,0,-0.0015396808739751577,-0.051313366740942,-0.18856461346149445,1]},{"mesh":13,"matrix":[1.1543780565261841,0,0,0,0,0.049840323626995087,-1.1533020734786987,0,0,1.1533007621765137,0.049840059131383896,0,-0.0015396808739751577,0.023183654993772507,-0.21599569916725159,1]}],"meshes":[{"primitives":[{"attributes":{"POSITION":0,"TEXCOORD_0":1},"mode":4,"indices":2,"material":0}]},{"primitives":[{"attributes":{"POSITION":3},"mode":4,"indices":4,"material":1}]},{"primitives":[{"attributes":{"POSITION":5},"mode":4,"indices":24,"material":2},{"attributes":{"POSITION":6},"mode":4,"indices":25,"material":3},{"attributes":{"POSITION":7},"mode":4,"indices":26,"material":4},{"attributes":{"POSITION":8},"mode":4,"indices":27,"material":5},{"attributes":{"POSITION":9},"mode":4,"indices":28,"material":6},{"attributes":{"POSITION":10,"TEXCOORD_0":20},"mode":4,"indices":29,"material":0},{"attributes":{"POSITION":11,"TEXCOORD_0":21},"mode":4,"indices":30,"material":0},{"attributes":{"POSITION":12},"mode":4,"indices":31,"material":3},{"attributes":{"POSITION":13,"TEXCOORD_0":22},"mode":4,"indices":32,"material":0},{"attributes":{"POSITION":14,"TEXCOORD_0":23},"mode":4,"indices":33,"material":0},{"attributes":{"POSITION":15},"mode":4,"indices":34,"material":3},{"attributes":{"POSITION":16},"mode":4,"indices":35,"material":3},{"attributes":{"POSITION":17},"mode":4,"indices":36,"material":7},{"attributes":{"POSITION":18},"mode":4,"indices":37,"material":3},{"attributes":{"POSITION":19},"mode":4,"indices":38,"material":7}]},{"primitives":[{"attributes":{"POSITION":39},"mode":4,"indices":40,"material":6}]},{"primitives":[{"attributes":{"POSITION":41},"mode":4,"indices":42,"material":8}]},{"primitives":[{"attributes":{"POSITION":43},"mode":4,"indices":44,"material":8}]},{"primitives":[{"attributes":{"POSITION":45},"mode":4,"indices":46,"material":8}]},{"primitives":[{"attributes":{"POSITION":47},"mode":4,"indices":48,"material":8}]},{"primitives":[{"attributes":{"POSITION":49},"mode":4,"indices":50,"material":8}]},{"primitives":[{"attributes":{"POSITION":51},"mode":4,"indices":52,"material":8}]},{"primitives":[{"attributes":{"POSITION":53},"mode":4,"indices":54,"material":8}]},{"primitives":[{"attributes":{"POSITION":55},"mode":4,"indices":56,"material":8}]},{"primitives":[{"attributes":{"POSITION":57},"mode":4,"indices":58,"material":8}]},{"primitives":[{"attributes":{"POSITION":59},"mode":4,"indices":60,"material":8}]}],"materials":[{"pbrMetallicRoughness":{"baseColorFactor":[1,1,1,1],"metallicFactor":0,"roughnessFactor":1,"baseColorTexture":{"index":0,"texCoord":0}},"alphaMode":"OPAQUE"},{"name":"seat","pbrMetallicRoughness":{"baseColorFactor":[0.0023164087906479836,0.0023164087906479836,0.0023164087906479836,1],"metallicFactor":0,"roughnessFactor":1},"alphaMode":"OPAQUE"},{"name":"firstcolor","pbrMetallicRoughness":{"baseColorFactor":[0.0042530158534646034,0.0042530158534646034,0.0042530158534646034,1],"metallicFactor":0,"roughnessFactor":1},"alphaMode":"OPAQUE"},{"name":"chrome","pbrMetallicRoughness":{"baseColorFactor":[0.36724650859832764,0.36724650859832764,0.36724650859832764,1],"metallicFactor":0,"roughnessFactor":1},"alphaMode":"OPAQUE"},{"name":"rubber","pbrMetallicRoughness":{"baseColorFactor":[0.0020496903453022242,0.0020496903453022242,0.0020496903453022242,1],"metallicFactor":0,"roughnessFactor":1},"alphaMode":"OPAQUE"},{"name":"plastic","pbrMetallicRoughness":{"baseColorFactor":[0.0038090446032583714,0.0038090446032583714,0.0038090446032583714,1],"metallicFactor":0,"roughnessFactor":1},"alphaMode":"OPAQUE"},{"name":"mudguards","pbrMetallicRoughness":{"baseColorFactor":[0.0042530158534646034,0.0042530158534646034,0.0042530158534646034,1],"metallicFactor":0,"roughnessFactor":1},"alphaMode":"OPAQUE"},{"name":"tires","pbrMetallicRoughness":{"baseColorFactor":[0.00090828171232715249,0.00090828171232715249,0.00090828171232715249,1],"metallicFactor":0,"roughnessFactor":1},"alphaMode":"OPAQUE"},{"name":"Head","pbrMetallicRoughness":{"baseColorFactor":[0.51336055994033813,0.32130125164985657,0.13449233770370483,1],"metallicFactor":0,"roughnessFactor":1},"alphaMode":"OPAQUE"}],"textures":[{"source":0,"sampler":0}],"images":[{"uri":"bicycle-texture.png"}],"samplers":[{"magFilter":9729,"wrapS":10497,"wrapT":10497}],"accessors":[{"bufferView":0,"byteOffset":0,"count":281,"componentType":5126,"type":"VEC3","min":[-0.0066116452217102051,0.12023483216762543,-0.87463760375976563],"max":[0.018889956176280975,0.60959124565124512,0.40806248784065247]},{"bufferView":1,"byteOffset":0,"count":281,"componentType":5126,"type":"VEC2"},{"bufferView":2,"byteOffset":0,"count":1176,"componentType":5125,"type":"SCALAR"},{"bufferView":3,"byteOffset":0,"count":111,"componentType":5126,"type":"VEC3","min":[-0.115775465965271,1.6059969663619995,-0.52694523334503174],"max":[0.32003778219223022,1.8298723697662354,0.14610406756401062]},{"bufferView":4,"byteOffset":0,"count":798,"componentType":5125,"type":"SCALAR"},{"bufferView":5,"byteOffset":0,"count":662,"componentType":5126,"type":"VEC3","min":[0.08323640376329422,-0.054271481931209564,0.027048001065850258],"max":[0.12220840901136398,0.016044527292251587,0.12313800305128098]},{"bufferView":5,"byteOffset":7944,"count":356,"componentType":5126,"type":"VEC3","min":[0.10116640478372574,-0.054731480777263641,0.047544002532958984],"max":[0.11109640449285507,0.014862525276839733,0.11068800836801529]},{"bufferView":5,"byteOffset":12216,"count":76,"componentType":5126,"type":"VEC3","min":[0.083198405802249908,0.013216526247560978,0.11121200770139694],"max":[0.12906041741371155,0.016068520024418831,0.11400599777698517]},{"bufferView":5,"byteOffset":13128,"count":98,"componentType":5126,"type":"VEC3","min":[0.091082409024238586,-0.054263480007648468,0.056402008980512619],"max":[0.12117640674114227,-0.022783476859331131,0.076094001531600952]},{"bufferView":5,"byteOffset":14304,"count":41,"componentType":5126,"type":"VEC3","min":[0.10330240428447723,-0.036041475832462311,0.08829200267791748],"max":[0.108958400785923,-0.0046614827588200569,0.12741801142692566]},{"bufferView":5,"byteOffset":14796,"count":409,"componentType":5126,"type":"VEC3","min":[0.10622419416904449,-0.06163199245929718,0.00357724167406559],"max":[0.10830073058605194,-0.010564926080405712,0.054645169526338577]},{"bufferView":5,"byteOffset":19704,"count":379,"componentType":5126,"type":"VEC3","min":[0.10404693335294724,-0.061631713062524796,0.0035774342250078917],"max":[0.10603620111942291,-0.010565204545855522,0.054644763469696045]},{"bufferView":5,"byteOffset":24252,"count":270,"componentType":5126,"type":"VEC3","min":[0.10059640556573868,-0.038691479712724686,0.02664400078356266],"max":[0.11166440695524216,-0.033505480736494064,0.031830001622438431]},{"bufferView":5,"byteOffset":27492,"count":470,"componentType":5126,"type":"VEC3","min":[0.10622419416904449,-0.061632350087165833,0.094544917345047],"max":[0.10828633606433868,-0.010564561933279037,0.14561310410499573]},{"bufferView":5,"byteOffset":33132,"count":418,"componentType":5126,"type":"VEC3","min":[0.10398374497890472,-0.061632391065359116,0.094544872641563416],"max":[0.10603620111942291,-0.010564522817730904,0.14561314880847931]},{"bufferView":5,"byteOffset":38148,"count":251,"componentType":5126,"type":"VEC3","min":[0.1015964075922966,-0.038691479712724686,0.11748401075601578],"max":[0.11066440492868423,-0.033505480736494064,0.12267200648784637]},{"bufferView":5,"byteOffset":41160,"count":526,"componentType":5126,"type":"VEC3","min":[0.10467040538787842,-0.061901483684778214,0.09427400678396225],"max":[0.10759039968252182,-0.010295477695763111,0.14588399231433868]},{"bufferView":5,"byteOffset":47472,"count":160,"componentType":5126,"type":"VEC3","min":[0.10467040538787842,-0.065207481384277344,0.090968005359172821],"max":[0.10759039968252182,-0.0069874790497124195,0.14918999373912811]},{"bufferView":5,"byteOffset":49392,"count":532,"componentType":5126,"type":"VEC3","min":[0.10467040538787842,-0.061901483684778214,0.0033059997949749231],"max":[0.10759039968252182,-0.010295477695763111,0.054912004619836807]},{"bufferView":5,"byteOffset":55776,"count":160,"componentType":5126,"type":"VEC3","min":[0.10467040538787842,-0.065207481384277344,0],"max":[0.10759039968252182,-0.0069874790497124195,0.058220002800226212]},{"bufferView":6,"byteOffset":0,"count":409,"componentType":5126,"type":"VEC2"},{"bufferView":6,"byteOffset":3272,"count":379,"componentType":5126,"type":"VEC2"},{"bufferView":6,"byteOffset":6304,"count":470,"componentType":5126,"type":"VEC2"},{"bufferView":6,"byteOffset":10064,"count":418,"componentType":5126,"type":"VEC2"},{"bufferView":7,"byteOffset":0,"count":2718,"componentType":5125,"type":"SCALAR"},{"bufferView":7,"byteOffset":10872,"count":1731,"componentType":5125,"type":"SCALAR"},{"bufferView":7,"byteOffset":17796,"count":249,"componentType":5125,"type":"SCALAR"},{"bufferView":7,"byteOffset":18792,"count":372,"componentType":5125,"type":"SCALAR"},{"bufferView":7,"byteOffset":20280,"count":174,"componentType":5125,"type":"SCALAR"},{"bufferView":7,"byteOffset":20976,"count":1008,"componentType":5125,"type":"SCALAR"},{"bufferView":7,"byteOffset":25008,"count":930,"componentType":5125,"type":"SCALAR"},{"bufferView":7,"byteOffset":28728,"count":1026,"componentType":5125,"type":"SCALAR"},{"bufferView":7,"byteOffset":32832,"count":1023,"componentType":5125,"type":"SCALAR"},{"bufferView":7,"byteOffset":36924,"count":924,"componentType":5125,"type":"SCALAR"},{"bufferView":7,"byteOffset":40620,"count":969,"componentType":5125,"type":"SCALAR"},{"bufferView":7,"byteOffset":44496,"count":1866,"componentType":5125,"type":"SCALAR"},{"bufferView":7,"byteOffset":51960,"count":768,"componentType":5125,"type":"SCALAR"},{"bufferView":7,"byteOffset":55032,"count":1812,"componentType":5125,"type":"SCALAR"},{"bufferView":7,"byteOffset":62280,"count":768,"componentType":5125,"type":"SCALAR"},{"bufferView":8,"byteOffset":0,"count":88,"componentType":5126,"type":"VEC3","min":[0.039977356791496277,0.44435319304466248,-1.5083504915237427],"max":[0.16428492963314056,1.2329723834991455,0.01570039801299572]},{"bufferView":9,"byteOffset":0,"count":516,"componentType":5125,"type":"SCALAR"},{"bufferView":10,"byteOffset":0,"count":521,"componentType":5126,"type":"VEC3","min":[-0.0074929222464561462,-0.18320833146572113,0.064300499856472015],"max":[0.0082995006814599037,-0.16739284992218018,0.10667994618415833]},{"bufferView":11,"byteOffset":0,"count":3114,"componentType":5125,"type":"SCALAR"},{"bufferView":12,"byteOffset":0,"count":242,"componentType":5126,"type":"VEC3","min":[-0.0060410057194530964,-0.18305276334285736,0.10668095201253891],"max":[0.0069225281476974487,-0.16998554766178131,0.12963525950908661]},{"bufferView":13,"byteOffset":0,"count":1440,"componentType":5125,"type":"SCALAR"},{"bufferView":14,"byteOffset":0,"count":173,"componentType":5126,"type":"VEC3","min":[0.0083004981279373169,-0.17854146659374237,0.076893247663974762],"max":[0.01599700003862381,-0.17139787971973419,0.10324151813983917]},{"bufferView":15,"byteOffset":0,"count":1026,"componentType":5125,"type":"SCALAR"},{"bufferView":16,"byteOffset":0,"count":222,"componentType":5126,"type":"VEC3","min":[0.008322589099407196,-0.19072715938091278,0.0498836487531662],"max":[0.016256272792816162,-0.17128191888332367,0.077698275446891785]},{"bufferView":17,"byteOffset":0,"count":1320,"componentType":5125,"type":"SCALAR"},{"bufferView":18,"byteOffset":0,"count":226,"componentType":5126,"type":"VEC3","min":[-0.01610071025788784,-0.18356572091579437,0.076742850244045258],"max":[-0.0073898523114621639,-0.17247454822063446,0.103085957467556]},{"bufferView":19,"byteOffset":0,"count":1344,"componentType":5125,"type":"SCALAR"},{"bufferView":20,"byteOffset":0,"count":239,"componentType":5126,"type":"VEC3","min":[-0.016256272792816162,-0.20586854219436646,0.05802474170923233],"max":[-0.0055224648676812649,-0.17974758148193359,0.078478731215000153]},{"bufferView":21,"byteOffset":0,"count":1434,"componentType":5125,"type":"SCALAR"},{"bufferView":22,"byteOffset":0,"count":126,"componentType":5126,"type":"VEC3","min":[0.00095930148381739855,-0.18502321839332581,0.036564398556947708],"max":[0.010033775120973587,-0.17221526801586151,0.064299501478672028]},{"bufferView":23,"byteOffset":0,"count":744,"componentType":5125,"type":"SCALAR"},{"bufferView":24,"byteOffset":0,"count":227,"componentType":5126,"type":"VEC3","min":[0.0018926758784800768,-0.18870484828948975,0],"max":[0.00915225688368082,-0.17138560116291046,0.03656340017914772]},{"bufferView":25,"byteOffset":0,"count":1350,"componentType":5125,"type":"SCALAR"},{"bufferView":26,"byteOffset":0,"count":129,"componentType":5126,"type":"VEC3","min":[-0.0091522540897130966,-0.17988967895507813,0.036564398556947708],"max":[-7.778072904329747E-5,-0.17081522941589355,0.064299501478672028]},{"bufferView":27,"byteOffset":0,"count":762,"componentType":5125,"type":"SCALAR"},{"bufferView":28,"byteOffset":0,"count":210,"componentType":5126,"type":"VEC3","min":[-0.0084781497716903687,-0.18917152285575867,0],"max":[-0.00075188378104940057,-0.17190413177013397,0.03656340017914772]},{"bufferView":29,"byteOffset":0,"count":1248,"componentType":5125,"type":"SCALAR"}],"bufferViews":[{"buffer":0,"byteOffset":0,"byteLength":3372,"byteStride":12,"target":34962},{"buffer":0,"byteOffset":3372,"byteLength":2248,"byteStride":8,"target":34962},{"buffer":0,"byteOffset":5620,"byteLength":4704,"target":34963},{"buffer":0,"byteOffset":10324,"byteLength":1332,"byteStride":12,"target":34962},{"buffer":0,"byteOffset":11656,"byteLength":3192,"target":34963},{"buffer":0,"byteOffset":14848,"byteLength":57696,"byteStride":12,"target":34962},{"buffer":0,"byteOffset":72544,"byteLength":13408,"byteStride":8,"target":34962},{"buffer":0,"byteOffset":85952,"byteLength":65352,"target":34963},{"buffer":0,"byteOffset":151304,"byteLength":1056,"byteStride":12,"target":34962},{"buffer":0,"byteOffset":152360,"byteLength":2064,"target":34963},{"buffer":0,"byteOffset":154424,"byteLength":6252,"byteStride":12,"target":34962},{"buffer":0,"byteOffset":160676,"byteLength":12456,"target":34963},{"buffer":0,"byteOffset":173132,"byteLength":2904,"byteStride":12,"target":34962},{"buffer":0,"byteOffset":176036,"byteLength":5760,"target":34963},{"buffer":0,"byteOffset":181796,"byteLength":2076,"byteStride":12,"target":34962},{"buffer":0,"byteOffset":183872,"byteLength":4104,"target":34963},{"buffer":0,"byteOffset":187976,"byteLength":2664,"byteStride":12,"target":34962},{"buffer":0,"byteOffset":190640,"byteLength":5280,"target":34963},{"buffer":0,"byteOffset":195920,"byteLength":2712,"byteStride":12,"target":34962},{"buffer":0,"byteOffset":198632,"byteLength":5376,"target":34963},{"buffer":0,"byteOffset":204008,"byteLength":2868,"byteStride":12,"target":34962},{"buffer":0,"byteOffset":206876,"byteLength":5736,"target":34963},{"buffer":0,"byteOffset":212612,"byteLength":1512,"byteStride":12,"target":34962},{"buffer":0,"byteOffset":214124,"byteLength":2976,"target":34963},{"buffer":0,"byteOffset":217100,"byteLength":2724,"byteStride":12,"target":34962},{"buffer":0,"byteOffset":219824,"byteLength":5400,"target":34963},{"buffer":0,"byteOffset":225224,"byteLength":1548,"byteStride":12,"target":34962},{"buffer":0,"byteOffset":226772,"byteLength":3048,"target":34963},{"buffer":0,"byteOffset":229820,"byteLength":2520,"byteStride":12,"target":34962},{"buffer":0,"byteOffset":232340,"byteLength":4992,"target":34963}],"buffers":[{"byteLength":237332,"uri":"Homme_velo.bin"}]}