# Blender 3.6.2
# www.blender.org
mtllib navmesh.mtl
o Navmesh
v -2.085390 0.172185 11.176317
v -2.085390 0.172185 -0.523684
v 3.314610 0.172185 -0.523684
v 3.614611 0.172185 2.176316
v 3.614611 0.172185 2.776317
v -0.585390 0.172185 3.076317
v -0.285390 0.172185 4.276317
v 3.314610 0.172185 4.276317
v 3.314610 0.172185 11.176317
v 4.514611 0.172185 4.276317
v 4.814610 0.172185 -0.523684
v 9.914611 0.172185 -0.523684
v 9.914611 0.172185 0.076317
v 5.114611 0.172185 0.376316
v 5.414611 0.172185 1.876316
v 9.914611 0.172185 1.876316
v 9.914611 0.172185 4.276317
v 6.614611 0.172185 4.276317
v 6.614611 0.172185 2.476316
v 5.414611 0.172185 2.176316
v 5.114611 0.172185 5.476316
v 9.914611 0.172185 5.776317
v 9.914611 0.172185 11.176317
v 4.814610 0.172185 11.176317
vn -0.0000 1.0000 -0.0000
s 0
f 2//1 6//1 3//1
f 3//1 6//1 4//1
f 4//1 6//1 5//1
f 1//1 7//1 2//1
f 2//1 7//1 6//1
f 1//1 9//1 7//1
f 7//1 9//1 8//1
f 16//1 19//1 17//1
f 17//1 19//1 18//1
f 21//1 10//1 24//1
f 20//1 19//1 15//1
f 15//1 19//1 16//1
f 21//1 24//1 22//1
f 22//1 24//1 23//1
f 11//1 10//1 14//1
f 14//1 10//1 15//1
f 15//1 10//1 20//1
f 20//1 10//1 21//1
f 11//1 14//1 12//1
f 12//1 14//1 13//1
