# Blender 3.6.2
# www.blender.org
mtllib paper.mtl
o Cube
v -0.441239 0.259672 0.507443
v -0.441239 0.340091 0.507443
v -0.366349 0.259672 0.509823
v -0.366349 0.340091 0.509823
v -0.442228 0.259672 0.538553
v -0.442228 0.340091 0.538553
v -0.367338 0.259672 0.540934
v -0.367338 0.340091 0.540934
vn 0.0318 -0.0000 -0.9995
vn 0.9995 -0.0000 0.0318
vn -0.0318 -0.0000 0.9995
vn -0.9995 -0.0000 -0.0318
vn -0.0000 -1.0000 -0.0000
vn -0.0000 1.0000 -0.0000
vt 0.625000 0.000000
vt 0.375000 0.250000
vt 0.375000 0.000000
vt 0.625000 0.250000
vt 0.375000 0.500000
vt 0.625000 0.500000
vt 0.375000 0.750000
vt 0.625000 0.750000
vt 0.375000 1.000000
vt 0.125000 0.750000
vt 0.125000 0.500000
vt 0.875000 0.500000
vt 0.625000 1.000000
vt 0.875000 0.750000
s 0
usemtl Lemari.014
f 2/1/1 3/2/1 1/3/1
f 4/4/2 7/5/2 3/2/2
f 8/6/3 5/7/3 7/5/3
f 6/8/4 1/9/4 5/7/4
f 7/5/5 1/10/5 3/11/5
f 4/12/6 6/8/6 8/6/6
f 2/1/1 4/4/1 3/2/1
f 4/4/2 8/6/2 7/5/2
f 8/6/3 6/8/3 5/7/3
f 6/8/4 2/13/4 1/9/4
f 7/5/5 5/7/5 1/10/5
f 4/12/6 2/14/6 6/8/6
