# Blender 3.6.2
# www.blender.org
mtllib poster.mtl
o Window.001_Cube.008
v -0.495682 0.239015 -0.543074
v -0.495682 0.257346 -0.546265
v -0.495910 0.239015 -0.543074
v -0.495910 0.257346 -0.546265
v -0.495682 0.236848 -0.555520
v -0.495682 0.255179 -0.558711
v -0.495910 0.236848 -0.555520
v -0.495910 0.255179 -0.558711
v -0.495910 0.256372 -0.547057
v -0.495910 0.239663 -0.544148
v -0.495910 0.237822 -0.554727
v -0.495910 0.254530 -0.557637
v -0.495721 0.256372 -0.547057
v -0.495721 0.239663 -0.544148
v -0.495721 0.237822 -0.554727
v -0.495721 0.254530 -0.557637
vn -0.0000 0.1715 0.9852
vn -1.0000 -0.0000 -0.0000
vn -0.0000 -0.1715 -0.9852
vn 1.0000 -0.0000 -0.0000
vn -0.0000 -0.9852 0.1715
vn -0.0000 0.9852 -0.1715
vn -0.0000 -0.9852 0.1716
vn -0.0000 -0.1714 -0.9852
vn -0.0000 0.1716 0.9852
vn -0.0000 -0.1716 -0.9852
vn -0.0000 0.9852 -0.1714
vt 0.625000 0.000000
vt 0.375000 0.250000
vt 0.375000 0.000000
vt 0.625000 0.500000
vt 0.875000 0.500000
vt 0.375000 0.750000
vt 0.375000 0.500000
vt 0.625000 0.750000
vt 0.375000 1.000000
vt 0.125000 0.750000
vt 0.125000 0.500000
vt 0.625000 0.250000
vt 0.625000 1.000000
vt 0.875000 0.750000
s 0
usemtl SideTegel.003
f 2/1/1 3/2/1 1/3/1
f 8/4/2 9/5/2 4/5/2
f 8/4/3 5/6/3 7/7/3
f 6/8/4 1/9/4 5/6/4
f 7/7/5 1/10/5 3/11/5
f 4/5/6 6/8/6 8/4/6
f 12/4/7 13/5/7 9/5/7
f 4/12/2 10/2/2 3/2/2
f 7/7/2 12/4/2 8/4/2
f 3/11/2 11/7/2 7/7/2
f 9/12/8 14/2/8 10/2/8
f 11/7/9 16/4/9 12/4/9
f 10/11/6 15/7/6 11/7/6
f 2/1/1 4/12/1 3/2/1
f 8/4/2 12/4/2 9/5/2
f 8/4/3 6/8/3 5/6/3
f 6/8/4 2/13/4 1/9/4
f 7/7/5 5/6/5 1/10/5
f 4/5/6 2/14/6 6/8/6
f 12/4/5 16/4/5 13/5/5
f 4/12/2 9/12/2 10/2/2
f 7/7/2 11/7/2 12/4/2
f 3/11/2 10/11/2 11/7/2
f 9/12/10 13/12/10 14/2/10
f 11/7/9 15/7/9 16/4/9
f 10/11/11 14/11/11 15/7/11
usemtl Kaca.003
f 13/12/2 15/7/2 14/2/2
f 13/12/2 16/4/2 15/7/2
