{
	"asset":{
		"generator":"Khronos glTF Blender I/O v4.0.44",
		"version":"2.0"
	},
	"extensionsUsed":[
		"KHR_materials_specular",
		"KHR_materials_ior"
	],
	"scene":0,
	"scenes":[
		{
			"name":"Scene",
			"nodes":[
				0
			]
		}
	],
	"nodes":[
		{
			"mesh":0,
			"name":"Navmesh_vraie_salle",
			"rotation":[
				0.7071068286895752,
				0,
				0,
				0.7071068286895752
			]
		}
	],
	"materials":[
		{
			"doubleSided":true,
			"extensions":{
				"KHR_materials_specular":{
					"specularFactor":0.6000000238418579
				},
				"KHR_materials_ior":{
					"ior":1.4500000476837158
				}
			},
			"name":"bottom",
			"pbrMetallicRoughness":{
				"metallicFactor":0,
				"roughnessFactor":0.7550510168075562
			}
		},
		{
			"doubleSided":true,
			"extensions":{
				"KHR_materials_specular":{
					"specularFactor":0.6000000238418579
				},
				"KHR_materials_ior":{
					"ior":1.4500000476837158
				}
			},
			"name":"top",
			"pbrMetallicRoughness":{
				"metallicFactor":0,
				"roughnessFactor":0.7550510168075562
			}
		},
		{
			"doubleSided":true,
			"extensions":{
				"KHR_materials_specular":{
					"specularFactor":0.6000000238418579
				},
				"KHR_materials_ior":{
					"ior":1.4500000476837158
				}
			},
			"name":"left",
			"pbrMetallicRoughness":{
				"metallicFactor":0,
				"roughnessFactor":0.7550510168075562
			}
		},
		{
			"doubleSided":true,
			"extensions":{
				"KHR_materials_specular":{
					"specularFactor":0.6000000238418579
				},
				"KHR_materials_ior":{
					"ior":1.4500000476837158
				}
			},
			"name":"right",
			"pbrMetallicRoughness":{
				"metallicFactor":0,
				"roughnessFactor":0.7550510168075562
			}
		},
		{
			"doubleSided":true,
			"extensions":{
				"KHR_materials_specular":{
					"specularFactor":0.6000000238418579
				},
				"KHR_materials_ior":{
					"ior":1.4500000476837158
				}
			},
			"name":"back",
			"pbrMetallicRoughness":{
				"metallicFactor":0,
				"roughnessFactor":0.7550510168075562
			}
		},
		{
			"doubleSided":true,
			"extensions":{
				"KHR_materials_specular":{
					"specularFactor":0.6000000238418579
				},
				"KHR_materials_ior":{
					"ior":1.4500000476837158
				}
			},
			"name":"front",
			"pbrMetallicRoughness":{
				"metallicFactor":0,
				"roughnessFactor":0.7550510168075562
			}
		}
	],
	"meshes":[
		{
			"name":"Navmesh_vraie_salle",
			"primitives":[
				{
					"attributes":{
						"POSITION":0,
						"NORMAL":1,
						"TEXCOORD_0":2
					},
					"indices":3,
					"material":0
				},
				{
					"attributes":{
						"POSITION":4,
						"NORMAL":5,
						"TEXCOORD_0":6
					},
					"indices":3,
					"material":1
				},
				{
					"attributes":{
						"POSITION":7,
						"NORMAL":8,
						"TEXCOORD_0":9
					},
					"indices":10,
					"material":2
				},
				{
					"attributes":{
						"POSITION":11,
						"NORMAL":12,
						"TEXCOORD_0":13
					},
					"indices":14,
					"material":3
				},
				{
					"attributes":{
						"POSITION":15,
						"NORMAL":16,
						"TEXCOORD_0":17
					},
					"indices":18,
					"material":4
				},
				{
					"attributes":{
						"POSITION":19,
						"NORMAL":20,
						"TEXCOORD_0":21
					},
					"indices":14,
					"material":5
				}
			]
		}
	],
	"accessors":[
		{
			"bufferView":0,
			"componentType":5126,
			"count":24,
			"max":[
				932.69384765625,
				1297.372314453125,
				0
			],
			"min":[
				-941.2031860351562,
				-849.60009765625,
				0
			],
			"type":"VEC3"
		},
		{
			"bufferView":1,
			"componentType":5126,
			"count":24,
			"type":"VEC3"
		},
		{
			"bufferView":2,
			"componentType":5126,
			"count":24,
			"type":"VEC2"
		},
		{
			"bufferView":3,
			"componentType":5123,
			"count":36,
			"type":"SCALAR"
		},
		{
			"bufferView":4,
			"componentType":5126,
			"count":24,
			"max":[
				932.69384765625,
				1297.372314453125,
				-1
			],
			"min":[
				-941.2031860351562,
				-849.60009765625,
				-1
			],
			"type":"VEC3"
		},
		{
			"bufferView":5,
			"componentType":5126,
			"count":24,
			"type":"VEC3"
		},
		{
			"bufferView":6,
			"componentType":5126,
			"count":24,
			"type":"VEC2"
		},
		{
			"bufferView":7,
			"componentType":5126,
			"count":24,
			"max":[
				321.1744384765625,
				1297.372314453125,
				0
			],
			"min":[
				-941.2031860351562,
				-849.60009765625,
				-1
			],
			"type":"VEC3"
		},
		{
			"bufferView":8,
			"componentType":5126,
			"count":24,
			"type":"VEC3"
		},
		{
			"bufferView":9,
			"componentType":5126,
			"count":24,
			"type":"VEC2"
		},
		{
			"bufferView":10,
			"componentType":5123,
			"count":36,
			"type":"SCALAR"
		},
		{
			"bufferView":11,
			"componentType":5126,
			"count":24,
			"max":[
				932.69384765625,
				1297.372314453125,
				0
			],
			"min":[
				-146.00784301757812,
				-849.60009765625,
				-1
			],
			"type":"VEC3"
		},
		{
			"bufferView":12,
			"componentType":5126,
			"count":24,
			"type":"VEC3"
		},
		{
			"bufferView":13,
			"componentType":5126,
			"count":24,
			"type":"VEC2"
		},
		{
			"bufferView":14,
			"componentType":5123,
			"count":36,
			"type":"SCALAR"
		},
		{
			"bufferView":15,
			"componentType":5126,
			"count":24,
			"max":[
				932.69384765625,
				684.697998046875,
				0
			],
			"min":[
				-941.2031860351562,
				-849.60009765625,
				-1
			],
			"type":"VEC3"
		},
		{
			"bufferView":16,
			"componentType":5126,
			"count":24,
			"type":"VEC3"
		},
		{
			"bufferView":17,
			"componentType":5126,
			"count":24,
			"type":"VEC2"
		},
		{
			"bufferView":18,
			"componentType":5123,
			"count":36,
			"type":"SCALAR"
		},
		{
			"bufferView":19,
			"componentType":5126,
			"count":24,
			"max":[
				932.69384765625,
				1297.372314453125,
				0
			],
			"min":[
				-941.2031860351562,
				677.39990234375,
				-1
			],
			"type":"VEC3"
		},
		{
			"bufferView":20,
			"componentType":5126,
			"count":24,
			"type":"VEC3"
		},
		{
			"bufferView":21,
			"componentType":5126,
			"count":24,
			"type":"VEC2"
		}
	],
	"bufferViews":[
		{
			"buffer":0,
			"byteLength":288,
			"byteOffset":0,
			"target":34962
		},
		{
			"buffer":0,
			"byteLength":288,
			"byteOffset":288,
			"target":34962
		},
		{
			"buffer":0,
			"byteLength":192,
			"byteOffset":576,
			"target":34962
		},
		{
			"buffer":0,
			"byteLength":72,
			"byteOffset":768,
			"target":34963
		},
		{
			"buffer":0,
			"byteLength":288,
			"byteOffset":840,
			"target":34962
		},
		{
			"buffer":0,
			"byteLength":288,
			"byteOffset":1128,
			"target":34962
		},
		{
			"buffer":0,
			"byteLength":192,
			"byteOffset":1416,
			"target":34962
		},
		{
			"buffer":0,
			"byteLength":288,
			"byteOffset":1608,
			"target":34962
		},
		{
			"buffer":0,
			"byteLength":288,
			"byteOffset":1896,
			"target":34962
		},
		{
			"buffer":0,
			"byteLength":192,
			"byteOffset":2184,
			"target":34962
		},
		{
			"buffer":0,
			"byteLength":72,
			"byteOffset":2376,
			"target":34963
		},
		{
			"buffer":0,
			"byteLength":288,
			"byteOffset":2448,
			"target":34962
		},
		{
			"buffer":0,
			"byteLength":288,
			"byteOffset":2736,
			"target":34962
		},
		{
			"buffer":0,
			"byteLength":192,
			"byteOffset":3024,
			"target":34962
		},
		{
			"buffer":0,
			"byteLength":72,
			"byteOffset":3216,
			"target":34963
		},
		{
			"buffer":0,
			"byteLength":288,
			"byteOffset":3288,
			"target":34962
		},
		{
			"buffer":0,
			"byteLength":288,
			"byteOffset":3576,
			"target":34962
		},
		{
			"buffer":0,
			"byteLength":192,
			"byteOffset":3864,
			"target":34962
		},
		{
			"buffer":0,
			"byteLength":72,
			"byteOffset":4056,
			"target":34963
		},
		{
			"buffer":0,
			"byteLength":288,
			"byteOffset":4128,
			"target":34962
		},
		{
			"buffer":0,
			"byteLength":288,
			"byteOffset":4416,
			"target":34962
		},
		{
			"buffer":0,
			"byteLength":192,
			"byteOffset":4704,
			"target":34962
		}
	],
	"buffers":[
		{
			"byteLength":4896,
			"uri":"navmesh-vraie-salle.bin"
		}
	]
}
