{
	"asset":{
		"generator":"Khronos glTF Blender I/O v4.0.44",
		"version":"2.0"
	},
	"scene":0,
	"scenes":[
		{
			"name":"Scene",
			"nodes":[
				0,
				1
			]
		}
	],
	"nodes":[
		{
			"mesh":0,
			"name":"Object.1",
			"rotation":[
				0.70710688829422,
				0,
				0,
				0.7071066498756409
			]
		},
		{
			"mesh":1,
			"name":"Object.2",
			"rotation":[
				0.70710688829422,
				0,
				0,
				0.7071066498756409
			]
		}
	],
	"meshes":[
		{
			"name":"Object.1",
			"primitives":[
				{
					"attributes":{
						"POSITION":0,
						"NORMAL":1
					},
					"indices":2
				}
			]
		},
		{
			"name":"Object.2",
			"primitives":[
				{
					"attributes":{
						"POSITION":3,
						"NORMAL":4
					},
					"indices":5
				}
			]
		}
	],
	"accessors":[
		{
			"bufferView":0,
			"componentType":5126,
			"count":2082,
			"max":[
				931.8005981445312,
				1526.9454345703125,
				0.0013650000328198075
			],
			"min":[
				311.329345703125,
				0.0014049999881535769,
				-0.9640359878540039
			],
			"type":"VEC3"
		},
		{
			"bufferView":1,
			"componentType":5126,
			"count":2082,
			"type":"VEC3"
		},
		{
			"bufferView":2,
			"componentType":5123,
			"count":5550,
			"type":"SCALAR"
		},
		{
			"bufferView":3,
			"componentType":5126,
			"count":90,
			"max":[
				832.4717407226562,
				1724.9439697265625,
				0.036086998879909515
			],
			"min":[
				311.329345703125,
				1526.9453125,
				-0.9640370011329651
			],
			"type":"VEC3"
		},
		{
			"bufferView":4,
			"componentType":5126,
			"count":90,
			"type":"VEC3"
		},
		{
			"bufferView":5,
			"componentType":5123,
			"count":186,
			"type":"SCALAR"
		}
	],
	"bufferViews":[
		{
			"buffer":0,
			"byteLength":24984,
			"byteOffset":0,
			"target":34962
		},
		{
			"buffer":0,
			"byteLength":24984,
			"byteOffset":24984,
			"target":34962
		},
		{
			"buffer":0,
			"byteLength":11100,
			"byteOffset":49968,
			"target":34963
		},
		{
			"buffer":0,
			"byteLength":1080,
			"byteOffset":61068,
			"target":34962
		},
		{
			"buffer":0,
			"byteLength":1080,
			"byteOffset":62148,
			"target":34962
		},
		{
			"buffer":0,
			"byteLength":372,
			"byteOffset":63228,
			"target":34963
		}
	],
	"buffers":[
		{
			"byteLength":63600,
			"uri":"sans_nom.bin"
		}
	]
}
