# Blender 3.6.2
# www.blender.org
mtllib printer.mtl
o Window.001_Cube.007
v -0.372229 0.182658 -0.618649
v -0.444501 0.182658 -0.671709
v -0.372229 0.181559 -0.618649
v -0.444501 0.181559 -0.671709
v -0.336204 0.182658 -0.667719
v -0.408476 0.182658 -0.720779
v -0.336204 0.181559 -0.667719
v -0.408476 0.181559 -0.720779
v -0.438601 0.181559 -0.673041
v -0.372725 0.181559 -0.624677
v -0.342104 0.181559 -0.666387
v -0.407980 0.181559 -0.714751
v -0.438601 0.182472 -0.673041
v -0.372725 0.182472 -0.624677
v -0.342104 0.182472 -0.666387
v -0.407980 0.182472 -0.714751
vn -0.5918 -0.0000 0.8061
vn -0.0000 -1.0000 -0.0000
vn 0.5918 -0.0000 -0.8061
vn -0.0000 1.0000 -0.0000
vn 0.8061 -0.0000 0.5918
vn -0.8061 -0.0000 -0.5918
vt 0.625000 0.000000
vt 0.375000 0.250000
vt 0.375000 0.000000
vt 0.625000 0.500000
vt 0.875000 0.500000
vt 0.375000 0.750000
vt 0.375000 0.500000
vt 0.625000 0.750000
vt 0.375000 1.000000
vt 0.125000 0.750000
vt 0.125000 0.500000
vt 0.625000 0.250000
vt 0.625000 1.000000
vt 0.875000 0.750000
s 0
usemtl SideTegel.019
f 2/1/1 3/2/1 1/3/1
f 8/4/2 9/5/2 4/5/2
f 8/4/3 5/6/3 7/7/3
f 6/8/4 1/9/4 5/6/4
f 7/7/5 1/10/5 3/11/5
f 4/5/6 6/8/6 8/4/6
f 12/4/5 13/5/5 9/5/5
f 4/12/2 10/2/2 3/2/2
f 7/7/2 12/4/2 8/4/2
f 3/11/2 11/7/2 7/7/2
f 9/12/3 14/2/3 10/2/3
f 11/7/1 16/4/1 12/4/1
f 10/11/6 15/7/6 11/7/6
f 2/1/1 4/12/1 3/2/1
f 8/4/2 12/4/2 9/5/2
f 8/4/3 6/8/3 5/6/3
f 6/8/4 2/13/4 1/9/4
f 7/7/5 5/6/5 1/10/5
f 4/5/6 2/14/6 6/8/6
f 12/4/5 16/4/5 13/5/5
f 4/12/2 9/12/2 10/2/2
f 7/7/2 11/7/2 12/4/2
f 3/11/2 10/11/2 11/7/2
f 9/12/3 13/12/3 14/2/3
f 11/7/1 15/7/1 16/4/1
f 10/11/6 14/11/6 15/7/6
usemtl Kaca.018
f 13/12/2 15/7/2 14/2/2
f 13/12/2 16/4/2 15/7/2
