# Blender 3.6.2
# www.blender.org
mtllib usb.mtl
o Misc.001_Cube.004
v 0.443447 0.173212 -0.587129
v 0.451968 0.173212 -0.593095
v 0.443447 0.172770 -0.587129
v 0.451968 0.172770 -0.593095
v 0.446473 0.173212 -0.582807
v 0.454994 0.173212 -0.588773
v 0.446473 0.172770 -0.582807
v 0.454994 0.172770 -0.588773
v 0.446252 0.171417 -0.583135
v 0.454773 0.171417 -0.589101
v 0.446506 0.171417 -0.582772
v 0.455027 0.171417 -0.588739
v 0.446252 0.173233 -0.583135
v 0.454773 0.173233 -0.589101
v 0.446506 0.173233 -0.582772
v 0.455027 0.173233 -0.588739
v 0.443453 0.171840 -0.587133
v 0.451973 0.171840 -0.593099
v 0.443453 0.171397 -0.587133
v 0.451973 0.171397 -0.593099
v 0.446479 0.171840 -0.582811
v 0.455000 0.171840 -0.588777
v 0.446479 0.171397 -0.582811
v 0.455000 0.171397 -0.588777
v 0.443636 0.173212 -0.587262
v 0.452157 0.173212 -0.593228
v 0.443636 0.172770 -0.587262
v 0.452157 0.172770 -0.593228
v 0.446663 0.173212 -0.582940
v 0.455183 0.173212 -0.588906
v 0.446663 0.172770 -0.582940
v 0.455183 0.172770 -0.588906
v 0.443448 0.171417 -0.587139
v 0.451969 0.171417 -0.593106
v 0.443702 0.171417 -0.586777
v 0.452223 0.171417 -0.592743
v 0.443448 0.173233 -0.587139
v 0.451969 0.173233 -0.593106
v 0.443702 0.173233 -0.586777
v 0.452223 0.173233 -0.592743
v 0.443621 0.172766 -0.587251
v 0.452142 0.172766 -0.593218
v 0.443621 0.172324 -0.587251
v 0.452142 0.172324 -0.593218
v 0.446648 0.172766 -0.582929
v 0.455169 0.172766 -0.588896
v 0.446648 0.172324 -0.582929
v 0.455169 0.172324 -0.588896
v 0.443636 0.173212 -0.587262
v 0.452157 0.173212 -0.593228
v 0.443636 0.172770 -0.587262
v 0.452157 0.172770 -0.593228
v 0.446663 0.173212 -0.582940
v 0.455183 0.173212 -0.588906
v 0.446663 0.172770 -0.582940
v 0.455183 0.172770 -0.588906
v 0.446345 0.173476 -0.590973
v 0.455193 0.173476 -0.597168
v 0.446345 0.171181 -0.590973
v 0.455193 0.171181 -0.597168
v 0.451076 0.173476 -0.584216
v 0.459924 0.173476 -0.590411
v 0.451076 0.171181 -0.584216
v 0.459924 0.171181 -0.590411
vn -0.5735 -0.0000 -0.8192
vn -0.0000 -1.0000 -0.0000
vn 0.5735 -0.0000 0.8192
vn -0.0000 1.0000 -0.0000
vn -0.8192 -0.0000 0.5735
vn 0.8192 -0.0000 -0.5735
vn 0.5736 -0.0000 0.8191
vn -0.8193 -0.0000 0.5733
vn 0.8191 -0.0000 -0.5737
vn -0.5736 -0.0000 -0.8191
vn -0.8191 -0.0000 0.5737
vn 0.8193 -0.0000 -0.5733
vn -0.8192 -0.0000 0.5736
vn 0.8192 -0.0000 -0.5736
vt 1.000000 0.389528
vt 1.000000 0.779056
vt 0.694764 0.779056
vt 1.000000 0.000000
vt 0.694764 0.389528
vt 0.389528 0.779056
vt 0.694764 0.000000
vt 0.389528 0.389528
vt 0.000000 0.389528
vt 0.000000 0.000000
vt 0.389528 0.000000
vt 0.000000 0.779056
s 0
usemtl Lemari.016
f 3/1/1 1/2/1 2/3/1
f 7/4/2 3/1/2 4/5/2
f 5/5/3 7/3/3 8/6/3
f 1/7/4 5/5/4 6/8/4
f 1/9/5 3/10/5 7/11/5
f 6/12/6 8/9/6 4/8/6
f 3/1/1 2/3/1 4/5/1
f 7/4/2 4/5/2 8/7/2
f 5/5/3 8/6/3 6/8/3
f 1/7/4 6/8/4 2/11/4
f 1/9/5 7/11/5 5/8/5
f 6/12/6 4/8/6 2/6/6
usemtl Lemari.017
f 11/1/2 9/2/2 10/3/2
f 15/4/7 11/1/7 12/5/7
f 13/5/4 15/3/4 16/6/4
f 9/7/1 13/5/1 14/8/1
f 9/9/8 11/10/8 15/11/8
f 14/12/9 16/9/9 12/8/9
f 11/1/2 10/3/2 12/5/2
f 15/4/7 12/5/7 16/7/7
f 13/5/4 16/6/4 14/8/4
f 9/7/1 14/8/1 10/11/1
f 9/9/8 15/11/8 13/8/8
f 14/12/9 12/8/9 10/6/9
usemtl Lemari.018
f 19/1/10 17/2/10 18/3/10
f 23/4/2 19/1/2 20/5/2
f 21/5/3 23/3/3 24/6/3
f 17/7/4 21/5/4 22/8/4
f 17/9/5 19/10/5 23/11/5
f 22/12/9 24/9/9 20/8/9
f 19/1/10 18/3/10 20/5/10
f 23/4/2 20/5/2 24/7/2
f 21/5/3 24/6/3 22/8/3
f 17/7/4 22/8/4 18/11/4
f 17/9/5 23/11/5 21/8/5
f 22/12/9 20/8/9 18/6/9
usemtl Lemari.019
f 27/1/1 25/2/1 26/3/1
f 31/4/2 27/1/2 28/5/2
f 29/5/7 31/3/7 32/6/7
f 25/7/4 29/5/4 30/8/4
f 25/9/11 27/10/11 31/11/11
f 30/12/6 32/9/6 28/8/6
f 27/1/1 26/3/1 28/5/1
f 31/4/2 28/5/2 32/7/2
f 29/5/7 32/6/7 30/8/7
f 25/7/4 30/8/4 26/11/4
f 25/9/11 31/11/11 29/8/11
f 30/12/6 28/8/6 26/6/6
usemtl Lemari.020
f 35/1/2 33/2/2 34/3/2
f 39/4/3 35/1/3 36/5/3
f 37/5/4 39/3/4 40/6/4
f 33/7/10 37/5/10 38/8/10
f 33/9/11 35/10/11 39/11/11
f 38/12/12 40/9/12 36/8/12
f 35/1/2 34/3/2 36/5/2
f 39/4/3 36/5/3 40/7/3
f 37/5/4 40/6/4 38/8/4
f 33/7/10 38/8/10 34/11/10
f 33/9/11 39/11/11 37/8/11
f 38/12/12 36/8/12 34/6/12
usemtl Lemari.021
f 43/1/10 41/2/10 42/3/10
f 47/4/2 43/1/2 44/5/2
f 45/5/7 47/3/7 48/6/7
f 41/7/4 45/5/4 46/8/4
f 41/9/11 43/10/11 47/11/11
f 46/12/9 48/9/9 44/8/9
f 43/1/10 42/3/10 44/5/10
f 47/4/2 44/5/2 48/7/2
f 45/5/7 48/6/7 46/8/7
f 41/7/4 46/8/4 42/11/4
f 41/9/11 47/11/11 45/8/11
f 46/12/9 44/8/9 42/6/9
usemtl Lemari.022
f 51/1/1 49/2/1 50/3/1
f 55/4/2 51/1/2 52/5/2
f 53/5/7 55/3/7 56/6/7
f 49/7/4 53/5/4 54/8/4
f 49/9/11 51/10/11 55/11/11
f 54/12/6 56/9/6 52/8/6
f 51/1/1 50/3/1 52/5/1
f 55/4/2 52/5/2 56/7/2
f 53/5/7 56/6/7 54/8/7
f 49/7/4 54/8/4 50/11/4
f 49/9/11 55/11/11 53/8/11
f 54/12/6 52/8/6 50/6/6
usemtl Lemari.023
f 59/1/1 57/2/1 58/3/1
f 63/4/2 59/1/2 60/5/2
f 61/5/3 63/3/3 64/6/3
f 57/7/4 61/5/4 62/8/4
f 57/9/13 59/10/13 63/11/13
f 62/12/14 64/9/14 60/8/14
f 59/1/1 58/3/1 60/5/1
f 63/4/2 60/5/2 64/7/2
f 61/5/3 64/6/3 62/8/3
f 57/7/4 62/8/4 58/11/4
f 57/9/13 63/11/13 61/8/13
f 62/12/14 60/8/14 58/6/14
